<?xml version="1.0" encoding="UTF-8"?><svg id="a" xmlns="http://www.w3.org/2000/svg" viewBox="0 0 248.98 159.26"><defs><style>.b{fill:none;stroke:#231f20;stroke-miterlimit:10;stroke-width:2px;}</style></defs><path class="b" d="M10.81,155.65c28.98,.16,67.81,.8,115.23,2.6,6.12,.23,12.18-1.3,17.45-4.4l21.23-12.47c1.88-1.1,4-1.69,6.18-1.7,11.3-.06,23.88-.24,35.79-.66,11.89-.41,22.19-8.22,25.92-19.51,12.65-38.29,15.76-78.34,15.32-111.18-.05-3.63-2.89-6.65-6.52-6.82C168.21-2.03,104.58,13.33,66.75,42.99,24.48,76.12,7.43,121.5,1.37,143.14c-1.75,6.27,2.93,12.47,9.44,12.51Z"/><path class="b" d="M245.6,2.73C224.67,42.46,163.69,121.43,1.24,141.09"/><path class="b" d="M60.93,89.81l-3.78-7.58c-.78-1.57-2.92-1.82-4.04-.47l-9.56,11.51c-3.11,3.74-5.79,7.82-8,12.15l-5.68,11.14c-.57,1.11-.31,2.47,.62,3.3l1.5,1.34c1.07,.95,2.69,.9,3.7-.12l24.18-24.54c1.76-1.79,2.19-4.49,1.07-6.73Z"/><path class="b" d="M127.32,52.81l-13.21,5.21c-2.42,.96-4.77,2.09-7.02,3.4l-14.4,8.35c-1.87,1.09-4.26,0-4.67-2.13l-1.01-5.25c-.34-1.76,.45-3.55,1.98-4.49l12.55-7.66c3.08-1.88,6.29-3.54,9.61-4.95l14.64-4.5c1.77-.54,3.59,.69,3.73,2.53l.42,5.27c.15,1.83-.92,3.55-2.63,4.22Z"/><path class="b" d="M191.97,35.94l-9.71,1.52c-3.54,.55-7.04,1.32-10.48,2.28l-11.23,3.15c-1.59,.45-3.17-.76-3.16-2.41l.04-5.54c.01-1.52,1.03-2.85,2.49-3.26l13.65-3.82c2.25-.63,4.54-1.13,6.86-1.5l12.86-2.05c1.65-.26,3.11,1.09,2.96,2.76l-.41,4.72c-.18,2.11-1.78,3.83-3.88,4.16Z"/></svg>