<?xml version="1.0" encoding="UTF-8"?><svg xmlns="http://www.w3.org/2000/svg" viewBox="0 0 2889.89 1144.68"><defs><style>.m{fill:none;stroke:#231f20;stroke-miterlimit:10;stroke-width:2px;}</style></defs><g id="a"/><g id="b"/><g id="c"/><g id="d"/><g id="e"/><g id="f"><g><path class="m" d="M2578.96,634.64c37.25,6.75,60.02,6.56,60.02,6.56v-73.14h-69.61l9.58,66.58Z"/><path class="m" d="M2610.56,639.28s-3.35,26.76-3.73,44.54c0,0,5.67,3.4,35.56,3.4,.5,0-3.4-46.03-3.4-46.03"/><path class="m" d="M2624.63,568.06v-121.06s-31.04,.5-63.33,6.05c3.03,69.61,16.58,115,16.58,115"/><path class="m" d="M2730.02,634.64c-37.25,6.75-60.02,6.56-60.02,6.56v-73.14h69.61l-9.58,66.58Z"/><path class="m" d="M2698.42,639.28s3.35,26.76,3.73,44.54c0,0-5.67,3.4-35.56,3.4-.5,0,3.4-46.03,3.4-46.03"/><path class="m" d="M2684.35,568.06v-121.06s31.04,.5,63.33,6.05c-3.03,69.61-16.58,115-16.58,115"/><rect class="m" x="2638.98" y="581.68" width="31.01" height="34.55"/></g></g><g id="g"/><g id="h"/><g id="i"/><g id="j"/><g id="k"/><g id="l"/></svg>