<?xml version="1.0" encoding="UTF-8"?><svg id="a" xmlns="http://www.w3.org/2000/svg" viewBox="0 0 261.72 143.8"><defs><style>.b{stroke-width:1.5px;}.b,.c,.d{fill:none;stroke:#231f20;stroke-miterlimit:10;}.c{stroke-width:2px;}.d{stroke-width:.5px;}</style></defs><path class="d" d="M121.43,116.17v.04c-.04-.54-.05-1.1-.15-1.62,.06,.51,.12,1.05,.15,1.58Z"/><path class="d" d="M121.56,117.81l-.12-1.6c.03,.42,.12,.82,.12,1.24v.36Z"/><path class="d" d="M155.24,109.42c-.74,2.27-1.06,4.63-.97,7.02l.09,1.52c-.06-.36-.12-.72-.15-1.08-.31-3.11,.25-6.13,1.56-9.03l-.53,1.55Z"/><path class="c" d="M155.24,109.42c-.74,2.27-1.06,4.63-.97,7.02l.09,1.52-7.03-1.48c-6.46-1.33-13.09-1.28-19.51,.14l-6.27,1.42v-.24l-.06-.99-.06-.63c-.03-.54-.06-1.08-.15-1.61-.06-.33-.09-.66-.18-.99-.21-1.25-.57-2.48-1.02-3.64l-.75-2,9.41-1.88c5.82-1.15,11.8-1.16,17.63-.04l9.42,1.83-.53,1.55Z"/><path class="c" d="M121.56,117.81v.24c-.06,.81-.14,1.64-.29,2.42-1.99-9.08-14.05-16.04-28.64-16-9.98,.02-18.76,3.33-23.91,8.34-3.1,2.97-4.91,6.59-4.9,10.44,0,1.43,.25,2.87,.76,4.21,2.95,8.3,14.44,14.46,28.15,14.42,.27,0,.57,0,.84-.03-3.29,.61-6.75,.94-10.34,.95-19.99,.05-36.45-9.92-38.3-22.76-.12-.78-.18-1.58-.19-2.39-.01-4.36,1.65-8.46,4.6-12.02,6.49-7.87,19.18-13.25,33.76-13.29,19.21-.05,35.16,9.17,38,21.27,.09,.33,.12,.66,.18,.99,.09,.54,.12,1.08,.15,1.61l.06,.63,.06,.99Z"/><path class="c" d="M121.26,120.47c-.06,.3-.12,.57-.21,.87-1.27,5.74-5.53,10.83-11.71,14.61-4.42,2.73-9.79,4.78-15.79,5.9-.27,.03-.57,.03-.84,.03-13.71,.03-25.2-6.12-28.15-14.42-.51-1.34-.75-2.78-.76-4.21,0-3.85,1.8-7.47,4.9-10.44,5.16-5,13.93-8.31,23.91-8.34,14.58-.04,26.64,6.93,28.64,16Z"/><path class="c" d="M212.24,116.96c.15,1.7-.02,3.41-.56,5.02-2.55,8.22-13.14,15.09-26.37,16.38-.27,.03-.57,.03-.84,.03-6.16-.52-11.81-2.06-16.5-4.41h-.03c-6.37-3.15-11.02-7.74-12.85-13.26-.12-.27-.21-.57-.3-.87,1.08-9.21,12.42-17.33,26.93-18.74,10.99-1.07,20.92,2.04,26.31,7.43,2.4,2.41,3.9,5.28,4.2,8.42Z"/><path class="c" d="M230.69,112.25c-.83,12.82-16.13,24.18-35.85,26.09-3.55,.34-7.05,.35-10.37,.06,.27,0,.57,0,.84-.03,13.23-1.29,23.82-8.16,26.37-16.38,.53-1.61,.71-3.32,.56-5.02-.31-3.14-1.81-6-4.2-8.42-5.39-5.39-15.32-8.51-26.31-7.43-14.52,1.41-25.85,9.54-26.93,18.74-.18-.6-.33-1.22-.42-1.88l-.09-1.52c-.1-2.39,.23-4.75,.97-7.02l.53-1.55c4.49-10.05,17.85-18.18,34.22-19.78,15.15-1.44,28.78,3.07,35.79,10.82,2.76,3.1,4.5,6.68,4.87,10.6,.09,.93,.09,1.85,.04,2.75Z"/><path class="b" d="M44.92,120.04c-1.41-8.91,4.42-14.41,4.42-14.41-21.3-9.78-34.66-23.34-34.7-38.76-.08-31.19,54.87-56.61,119.65-56.77,64.75-.16,111.66,25,111.74,56.19,.03,12.37-7.32,23.59-20.24,32.62l.32,.52c2.28,3.66,3.8,7.76,4.46,12.02l.12,.8c18.94-11.85,30.32-27.12,30.28-43.76C260.88,30.9,202.57,.57,130.71,.75,58.85,.93,.66,31.55,.75,69.14c.05,20.32,17.13,38.5,44.17,50.89"/></svg>