<?xml version="1.0" encoding="UTF-8"?><svg id="a" xmlns="http://www.w3.org/2000/svg" viewBox="0 0 236.03 142.37"><defs><style>.b,.c{fill:none;stroke:#231f20;stroke-miterlimit:10;}.c{stroke-width:2px;}</style></defs><path class="c" d="M235,37.74c-3.96,37.11-20.55,70.47-45.39,95.66-11.72-2.73-23.96-4.17-36.51-4.17-22.8,0-39.42,2.39-57.59,10.26-6.49,2.81-13.92,2.47-20.11-.96-11.35-6.29-21.48-13.36-29.26-21.02,22.97-9.84,54.64-22.34,100.53-37.84,6.75-2.29,5.44-12.16-1.64-12.63l-33.13-6.48c15.1,1.67,30.89,3.67,46.98,6.09,1.56,.23,3.13,.26,4.66,.08l12.06-1.41c1.56-.18,1.67-2.37,.16-2.71-29.98-6.28-67.89-14.51-92.79-17.45-6.59-.78-7.79-9.82-1.61-12.29,17.06-6.82,41.64-16.38,67.24-25.34,7.66-.94,15-1.25,21.8-.94,46.8,2.19,64.61,31.15,64.61,31.15Z"/><path class="c" d="M175.6,65.32l-12.06,1.41c-1.54,.18-3.1,.16-4.66-.08-16.09-2.42-31.88-4.43-46.98-6.09-44.9-4.92-83.75-6.8-106.85-7.53-4.61-.16-5.6-6.54-1.28-8.05C35.56,33.78,83.38,18.1,152.42,1.23c1.95-.47,4.04-.21,5.81,.7l2.63,1.38c-4.09,1.38-8.2,2.79-12.27,4.22-25.6,8.96-50.18,18.52-67.24,25.34-6.17,2.47-4.97,11.51,1.61,12.29,24.9,2.94,62.82,11.17,92.79,17.45,1.51,.34,1.41,2.53-.16,2.71Z"/><path class="b" d="M165.02,60.15c15.05-1.98,41.71-7.44,69.92-22.51"/></svg>