<?xml version="1.0" encoding="UTF-8"?><svg xmlns="http://www.w3.org/2000/svg" viewBox="0 0 2889.89 1144.68"><defs><style>.m,.n{fill:none;stroke:#231f20;stroke-miterlimit:10;}.n{stroke-width:2px;}</style></defs><g id="a"/><g id="b"><g><path class="n" d="M2731.93,556.02v93.32c0,4.18-3.38,7.57-7.57,7.57h-12.22c-.18-.85-.51-1.69-1.02-2.51-7.72-12.28-18.49-22.43-31.29-29.42v-68.96c0-11.35,7.25-21.01,17.42-24.57v-53.22h17.24v53.22c10.15,3.56,17.42,13.22,17.42,24.57Z"/><path class="n" d="M2704.34,666.45h-129.97c-6.19,0-10.08-6.81-6.79-12.04,14.98-23.85,41.52-39.72,71.78-39.72,14.64,0,28.44,3.72,40.47,10.28,12.79,6.99,23.56,17.13,31.29,29.42,.51,.82,.85,1.67,1.02,2.51,1,4.67-2.58,9.55-7.81,9.55Z"/><path class="m" d="M2639.88,641.24v.96c0,3.92-3.16,7.1-7.08,7.1s-7.1-3.18-7.1-7.1v-26.67l14.17-.82v26.53Z"/><path class="m" d="M2673.63,637.22v.96c0,3.92-3.16,7.1-7.08,7.1s-7.1-3.18-7.1-7.1v-21.24l14.17,5.19v15.09Z"/><path class="m" d="M2607.7,637.22v.96c0,3.92-3.16,7.1-7.08,7.1s-7.1-3.18-7.1-7.1v-10.03l14.17-7.21v16.29Z"/></g></g><g id="c"/><g id="d"/><g id="e"/><g id="f"/><g id="g"/><g id="h"/><g id="i"/><g id="j"/><g id="k"/><g id="l"/></svg>