<?xml version="1.0" encoding="UTF-8"?><svg xmlns="http://www.w3.org/2000/svg" viewBox="0 0 2889.89 1144.68"><defs><style>.m{fill:none;stroke:#231f20;stroke-miterlimit:10;stroke-width:2px;}</style></defs><g id="a"/><g id="b"/><g id="c"/><g id="d"/><g id="e"/><g id="f"/><g id="g"/><g id="h"/><g id="i"/><g id="j"/><g id="k"/><g id="l"><g><path class="m" d="M2535.27,613.32s176.98-2.28,227.53-13.66c0,0,2.73,18.67-10.02,24.59,0,0-98.59-.91-194.21,4.1,0,0-23.75-.46-23.3-15.03Z"/><path class="m" d="M2535.27,613.32s-.31-26.87,9.79-35.52c0,0,38.5,1.69,64.62-5.9,1.85-.54,3.82,.1,4.92,1.68,4.76,6.82,16.69,25.44,14.1,37.39l-93.42,2.34Z"/><path class="m" d="M2692.26,607.57s1.77-18.87,13.06-30.73c2.44-2.56,5.72-4.15,9.23-4.61,10.31-1.35,35.13-5.11,43.7-10.82,0,0,5.46,16.85,4.55,38.25,0,0-46.78,6.49-70.54,7.91Z"/><path class="m" d="M2758.24,561.41c-2.67-11.39-8.65-20.95-8.65-20.95-27.32,13.21-57.33-5.46-57.33-5.46-6.79-7.74-20.99-6.83-20.99-6.83-68.3,48.27-123.43,49.73-123.43,49.73"/><path class="m" d="M2749.59,540.47s-3.24-12.58-3.96-21.14c-.14-1.69-1.53-3-3.23-3h0c-1.75,0-3.19,1.38-3.24,3.13-.19,6.58-2.16,21.58-15.94,25.5,0,0,13.18,1.79,26.37-4.5Z"/></g></g></svg>