<?xml version="1.0" encoding="UTF-8"?><svg id="a" xmlns="http://www.w3.org/2000/svg" viewBox="0 0 135.17 253.39"><defs><style>.b{stroke-width:2px;}.b,.c{fill:none;stroke:#231f20;stroke-miterlimit:10;}.c{stroke-width:4px;}</style></defs><path class="b" d="M108.43,162.26l-6.44,1.92-20.76,6.17c-2.07,.62-4.25-.62-4.76-2.72-1.12-4.67-1.54-8.3-1.51-11.58,.21-25.13-7.32-32.81-7.32-32.81-19.7-20.03-17.72-40.7-17.72-40.7,.47-16.51-11.61-35.97-17.46-47.97-.92-1.95-1.71-3.69-2.24-5.2-2.24-6.38-3.78-11.81-4.73-15.48-.68-2.66,.97-5.35,3.66-5.94L58.9,1.41c8.92-1.98,17.78,3.46,20.11,12.29l35.86,137.1c1.3,4.93-1.54,10.01-6.44,11.46Z"/><path class="b" d="M101.99,164.18l-20.76,6.17c-2.07,.62-4.25-.62-4.76-2.72-1.12-4.67-1.54-8.3-1.51-11.58,.21-25.13-7.32-32.81-7.32-32.81-19.7-20.03-17.72-40.7-17.72-40.7,.47-16.51-11.61-35.97-17.46-47.97l19.24-3.97c6.8-1.4,13.53,2.86,15.03,9.64,1.6,7.28,3.18,18.26,3.54,33.97,0,0-1.86,17.96,17.4,42.89,0,0,12.35,17.13,14.32,47.08Z"/><rect class="b" x="96.15" y="164" width="26.25" height="86.2" transform="translate(-53.52 38.79) rotate(-16.23)"/><path class="c" d="M15.6,155.29C35.42,99.56,30.14,42.09,27.98,25.36c-.25-1.96-2.74-2.61-3.95-1.04C14.92,36.11-9.08,76.15,7.96,154.8c.39,1.82,2.02,3.13,3.88,3.13h0c1.68,0,3.19-1.06,3.75-2.64Z"/></svg>