<?xml version="1.0" encoding="UTF-8"?><svg xmlns="http://www.w3.org/2000/svg" viewBox="0 0 2889.89 1144.68"><defs><style>.m{fill:none;stroke:#231f20;stroke-miterlimit:10;stroke-width:2px;}</style></defs><g id="a"/><g id="b"/><g id="c"/><g id="d"/><g id="e"><g><path class="m" d="M2749.7,572.34c0,20.96-6.42,40.44-17.44,56.57-18.06,26.55-48.53,43.99-83.09,43.99-30.81,0-58.36-13.86-76.79-35.64,11.59-18.77,36.75-47.88,82.95-52.48,24.65-55.32,7.13-92.75-9.31-112.94,1.05-.03,2.1-.06,3.15-.06,55.52,0,100.53,45.01,100.53,100.56Z"/><path class="m" d="M2655.33,584.78c-46.2,4.6-71.36,33.71-82.95,52.48-14.85-17.52-23.77-40.18-23.77-64.92,0-54.49,43.31-98.82,97.4-100.5,16.44,20.19,33.96,57.62,9.31,112.94Z"/><path class="m" d="M2666.59,546.64c-58.7,0-94.58,36.23-111.89,60.22"/><path class="m" d="M2665.91,505.7c-61.56-.27-99.03,36.06-117.07,60.15"/><path class="m" d="M2678.57,607.65c27.95-45.95,21.75-99.38,7.17-129.61"/><path class="m" d="M2708.2,624.35c29.52-48.07,22.27-94.82,12.24-123.8"/><path class="m" d="M2655.33,584.78c11.66,18.73,34.08,39.26,76.93,44.15"/><path class="m" d="M2621.52,592.43c21.96,39.27,55.96,56.45,83.87,63.86"/><path class="m" d="M2590.85,614.17c26.66,35.3,60.8,49.25,89.07,54.22"/></g></g><g id="f"/><g id="g"/><g id="h"/><g id="i"/><g id="j"/><g id="k"/><g id="l"/></svg>