<?xml version="1.0" encoding="utf-8"?>
<!-- Generator: Adobe Illustrator 26.5.0, SVG Export Plug-In . SVG Version: 6.00 Build 0)  -->
<svg version="1.1" id="Layer_1" xmlns="http://www.w3.org/2000/svg" xmlns:xlink="http://www.w3.org/1999/xlink" x="0px" y="0px"
	 viewBox="0 0 55 36.77" style="enable-background:new 0 0 55 36.77;" xml:space="preserve">
<style type="text/css">
	.st0{fill:#3B3B3B;}
</style>
<path class="st0" d="M51.96,7.09H3.04C1.36,7.09,0,5.74,0,4.06V3.04C0,1.36,1.36,0,3.04,0l48.93,0C53.64,0,55,1.36,55,3.04v1.02
	C55,5.74,53.64,7.09,51.96,7.09z"/>
<path class="st0" d="M51.96,21.93H3.04C1.36,21.93,0,20.57,0,18.9v-1.02c0-1.68,1.36-3.04,3.04-3.04h48.93
	c1.68,0,3.04,1.36,3.04,3.04v1.02C55,20.57,53.64,21.93,51.96,21.93z"/>
<path class="st0" d="M51.96,36.77H3.04C1.36,36.77,0,35.41,0,33.73v-1.02c0-1.68,1.36-3.04,3.04-3.04h48.93
	c1.68,0,3.04,1.36,3.04,3.04v1.02C55,35.41,53.64,36.77,51.96,36.77z"/>
</svg>
