<?xml version="1.0" encoding="utf-8"?>
<!-- Generator: Adobe Illustrator 26.5.0, SVG Export Plug-In . SVG Version: 6.00 Build 0)  -->
<svg version="1.0" id="Layer_1" xmlns="http://www.w3.org/2000/svg" xmlns:xlink="http://www.w3.org/1999/xlink" x="0px" y="0px"
	 viewBox="0 0 55 36.8" style="enable-background:new 0 0 55 36.8;" xml:space="preserve">
<style type="text/css">
	.st0{fill:#3B3B3B;}
</style>
<path class="st0" d="M52,7.1H3c-1.7,0-3-1.4-3-3V3c0-1.7,1.4-3,3-3H52c1.7,0,3,1.4,3,3v1C55,5.7,53.6,7.1,52,7.1z"/>
<path class="st0" d="M52,21.9H3c-1.7,0-3-1.4-3-3v-1c0-1.7,1.4-3,3-3H52c1.7,0,3,1.4,3,3v1C55,20.6,53.6,21.9,52,21.9z"/>
<path class="st0" d="M52,36.8H3c-1.7,0-3-1.4-3-3v-1c0-1.7,1.4-3,3-3H52c1.7,0,3,1.4,3,3v1C55,35.4,53.6,36.8,52,36.8z"/>
</svg>
