<?xml version="1.0" encoding="utf-8"?>
<!-- Generator: Adobe Illustrator 26.5.0, SVG Export Plug-In . SVG Version: 6.00 Build 0)  -->
<svg version="1.1" id="Layer_1" xmlns="http://www.w3.org/2000/svg" xmlns:xlink="http://www.w3.org/1999/xlink" x="0px" y="0px"
	 viewBox="0 0 300 82.78" style="enable-background:new 0 0 300 82.78;" xml:space="preserve">
<style type="text/css">
	.st0{fill:url(#SVGID_1_);}
	.st1{fill:#EC724C;}
	.st2{fill:#89C464;}
	.st3{fill:#FFFFFF;}
	.st4{opacity:0.76;}
	.st5{fill:#6B97B0;}
	.st6{fill:#78ADB8;}
	.st7{opacity:0.6;fill:#FFFFFF;}
	.st8{fill:#886753;}
</style>
<linearGradient id="SVGID_1_" gradientUnits="userSpaceOnUse" x1="41.258" y1="-0.4106" x2="41.258" y2="43.339">
	<stop  offset="0" style="stop-color:#CD6758"/>
	<stop  offset="1" style="stop-color:#FFE33F"/>
</linearGradient>
<path class="st0" d="M82.52,44.85H0V15.37C0,6.88,6.88,0,15.37,0h51.78c8.49,0,15.37,6.88,15.37,15.37V44.85z"/>
<ellipse class="st1" cx="32.04" cy="32.97" rx="9.86" ry="9.54"/>
<path class="st2" d="M19.8,41.59l8.19-3.22l1.86-5.28l2.85,5.97l3.63-10.8l2.82,5.06c0,0,6.95-13.9,7.07-13.56
	c0.12,0.34,4.34,7.35,4.34,7.35l2.73-2.53l4.96,6.78l9.43-16.43l6.45,10.91l2.61-3.33l1.99,2.3l3.78-5.28v23.78H19.8V41.59z"/>
<path class="st3" d="M63.44,43.78H18.56c-0.21,0-0.38-0.17-0.38-0.38v-0.18c0-0.21,0.17-0.38,0.38-0.38h44.88
	c0.21,0,0.38,0.17,0.38,0.38v0.18C63.82,43.61,63.65,43.78,63.44,43.78z"/>
<g class="st4">
	<ellipse class="st3" cx="36.05" cy="41.82" rx="6.62" ry="6.13"/>
	<ellipse class="st3" cx="24.04" cy="29.99" rx="6.62" ry="6.13"/>
	<ellipse class="st3" cx="15.36" cy="35.69" rx="11.17" ry="10.34"/>
	<ellipse class="st3" cx="28.66" cy="37.81" rx="7.39" ry="6.85"/>
	<g>
		<path class="st3" d="M1.83,19.52c-0.62,0-1.23,0.04-1.83,0.12v23.6c0.6,0.08,1.21,0.12,1.83,0.12c7.11,0,12.87-5.34,12.87-11.92
			C14.71,24.85,8.94,19.52,1.83,19.52z"/>
	</g>
</g>
<rect x="0" y="47.95" class="st5" width="82.52" height="7.47"/>
<rect x="0" y="41.15" class="st6" width="82.52" height="8.44"/>
<path class="st7" d="M71.52,52.15H26.64c-0.21,0-0.38-0.17-0.38-0.38V51.6c0-0.21,0.17-0.38,0.38-0.38h44.88
	c0.21,0,0.38,0.17,0.38,0.38v0.18C71.9,51.98,71.73,52.15,71.52,52.15z"/>
<path class="st7" d="M79.95,43.78H47.23c-0.21,0-0.38-0.17-0.38-0.38v-0.18c0-0.21,0.17-0.38,0.38-0.38h32.71
	c0.21,0,0.38,0.17,0.38,0.38v0.18C80.33,43.61,80.16,43.78,79.95,43.78z"/>
<path class="st8" d="M0,64.39h82.52v3.49c0,8.23-6.67,14.9-14.9,14.9H14.9C6.67,82.78,0,76.11,0,67.88L0,64.39z"/>
<rect x="0" y="55.2" class="st6" width="82.52" height="9.6"/>
<path class="st7" d="M73.64,63.06H41.38c-0.21,0-0.38-0.17-0.38-0.38V62.5c0-0.21,0.17-0.38,0.38-0.38h32.26
	c0.21,0,0.38,0.17,0.38,0.38v0.18C74.02,62.89,73.85,63.06,73.64,63.06z"/>
<path class="st7" d="M77.06,60.94H62.14c-0.21,0-0.38-0.17-0.38-0.38v-0.18c0-0.21,0.17-0.38,0.38-0.38h14.92
	c0.21,0,0.38,0.17,0.38,0.38v0.18C77.44,60.77,77.27,60.94,77.06,60.94z"/>
<g>
	<path class="st8" d="M7.68,38.13c0.36,1,1.81,2.13,2.73,2.64c0,0.05,0,0.1,0,0.16c0.43-0.43,0.73-1.27,0.8-2.02
		c0.44,0.6,0.36,1.94,0.32,2.95c0.63-0.06,1.41-0.33,1.92,0c0.43,0,0.86,0,1.28,0c0.2-0.86,0.34-1.76,0.32-2.95
		c0.05,0,0.11,0,0.16,0c0.16,0.52,0.32,1.03,0.48,1.55c0.44-0.67,0.02-5.41,0-6.82c-0.87-0.67-1.94-1.61-2.41-2.64
		c-0.26-0.56-0.17-1.23-0.48-1.71c0-0.21,0-0.41,0-0.62c0.53,0.66,0.62,1.66,1.12,2.33c0.52,0.7,1.54,1.04,2.08,1.71
		c1.34-0.25,3.52-4.44,3.69-6.05c0.98,1.61-1.82,6.4-2.73,6.98c-0.02,2.59,0.15,4.14,1.12,5.58c4.91,0.05,7.01-5.41,6.9-10.55
		c1.41,1.9-0.06,8.09-1.12,9.15c0,0.1,0,0.21,0,0.31c2.65-0.05,3.19-1.92,4.49-3.26c0-0.05,0-0.1,0-0.16c0.05,0,0.11,0,0.16,0
		c-0.56,2.38-2.24,4.08-4.49,4.81c-2.59,0.84-6.73,0.6-7.86,2.79c-0.28,0.17,0.25,0.47,0.48,0.62c0.16,0.13,0.04,0.06,0.32,0.16
		c0.9-1.08,2-1.21,3.21-2.02c0.32,0,0.64,0,0.96,0c-0.35,1.65-1.35,3.39-2.89,3.88c0.07,2.3,2.01,3,3.53,3.88
		c-0.16,1.27-1.27,1.53-1.76,2.64c-1.17-0.05-3.45-0.71-4.33-0.16c-1.72,0.08-3.25,2.04-3.85,3.26c0.95-0.62,1.66-1.5,2.73-2.02
		c0-0.05,0-0.1,0-0.16c0.87,0.93,1.05,1.99,2.41,2.48c2.07,0.75,4.92-0.21,7.38,0.31c1.58,0.33,3.92,0.16,5.77,0.16
		c5.37,0,10.04,0.08,13.31,2.02c2.07,1.23,2.84,1.85,3.53,4.5c0.18,0.68,0.23,1.89-0.16,2.48c-0.1,0.27-0.03,0.15-0.16,0.31
		c-0.41-0.78-0.88-1.79-1.44-2.48c0-0.05,0-0.1,0-0.16c-0.05,0-0.11,0-0.16,0c0,1.69-0.06,3.75,0,5.74H4.94
		c-0.4-0.61-0.51-1.04-0.72-1.78c-0.42-1.5-0.23-4.36-0.22-5.82c0-1.09,0-2.17,0-3.26c0.44-1.93,0.07-4.21,0.64-6.05
		C5,49.69,5.78,48.8,6.4,47.9c0.45-0.65,0.66-1.39,1.28-1.86c-0.11-1.32-0.6-1.05-1.28-1.71c-1.04-1.01-1.86-2.58-1.92-4.5
		c1.78,0.24,3.62,1.43,4.65,2.48c0.05,0,0.11,0,0.16,0c-0.71-1.86-4.47-3.73-5.77-5.43c-1.32-1.71-3.71-5.42-2.89-9
		c0.28-1.21,0.78-2.37,0.96-3.57c0.57,0.93-0.55,2.82,0,3.72c0,0.36,0,0.72,0,1.09c0.05,0,0.11,0,0.16,0
		c0.66-2.69,2.87-3.46,4.33-5.27c0.11,0,0.21,0,0.32,0c-1.07,1.54-2.73,2.65-3.53,4.5c-1.78,4.14,1.16,7.27,3.05,9
		c0.33-0.06,0.31-0.04,0.48-0.16c1.31-0.47,1.32-2.55,1.76-3.88c0.48-1.24,0.96-2.48,1.44-3.72c0.53-0.82,1.4-1.52,1.92-2.33
		c0.05,0,0.11,0,0.16,0c-0.42,1.22-1.42,2.26-1.92,3.41c-0.42,0.97-0.38,2.23-0.96,3.1c0,0.57,0,1.14,0,1.71
		c1.51,0.28,4.02-0.44,4.81-1.4c0.11,0,0.21,0,0.32,0c-0.79,1.15-2.61,2.28-4.01,2.79c-1.03,0.38-1.82,0.14-2.25,1.09
		C7.68,37.98,7.65,38.05,7.68,38.13z"/>
</g>
<g>
	<path class="st3" d="M96.98,16.4h19.73v5.98h-13.25v5.98h12.25v5.98h-12.25V45.8h-6.48V16.4z"/>
	<path class="st3" d="M120.15,19.26c0-1,0.35-1.85,1.06-2.55c0.71-0.71,1.56-1.06,2.55-1.06c1,0,1.85,0.35,2.55,1.06
		c0.71,0.71,1.06,1.56,1.06,2.55c0,1-0.35,1.85-1.06,2.55s-1.56,1.06-2.55,1.06c-1,0-1.85-0.35-2.55-1.06S120.15,20.26,120.15,19.26
		z M120.65,25.62h6.23V45.8h-6.23V25.62z"/>
	<path class="st3" d="M142.79,31.56c-0.91-1.13-2.12-1.7-3.61-1.7c-0.53,0-1.04,0.12-1.54,0.37s-0.75,0.68-0.75,1.29
		c0,0.5,0.26,0.86,0.77,1.1c0.51,0.24,1.16,0.44,1.95,0.62c0.79,0.18,1.63,0.37,2.53,0.58c0.9,0.21,1.74,0.53,2.53,0.98
		c0.79,0.44,1.44,1.04,1.95,1.81c0.51,0.76,0.77,1.78,0.77,3.05c0,1.3-0.28,2.38-0.85,3.22c-0.57,0.84-1.3,1.52-2.18,2.03
		c-0.89,0.51-1.88,0.87-2.99,1.08c-1.11,0.21-2.2,0.31-3.28,0.31c-1.41,0-2.84-0.2-4.28-0.6c-1.44-0.4-2.66-1.11-3.66-2.14l3.78-4.2
		c0.58,0.72,1.23,1.27,1.93,1.64s1.53,0.56,2.47,0.56c0.72,0,1.37-0.1,1.95-0.31c0.58-0.21,0.87-0.59,0.87-1.14
		c0-0.53-0.26-0.92-0.77-1.18c-0.51-0.26-1.16-0.48-1.95-0.66c-0.79-0.18-1.63-0.37-2.53-0.58c-0.9-0.21-1.74-0.52-2.53-0.93
		c-0.79-0.42-1.44-1-1.95-1.77c-0.51-0.76-0.77-1.78-0.77-3.05c0-1.19,0.24-2.22,0.73-3.07c0.48-0.86,1.12-1.56,1.91-2.12
		c0.79-0.55,1.7-0.96,2.72-1.23c1.02-0.26,2.06-0.39,3.12-0.39c1.33,0,2.67,0.19,4.03,0.58c1.36,0.39,2.51,1.08,3.45,2.08
		L142.79,31.56z"/>
	<path class="st3" d="M156.83,14.4v13.96h0.08c0.14-0.39,0.37-0.78,0.71-1.16c0.33-0.39,0.73-0.73,1.2-1.04
		c0.47-0.3,1.02-0.55,1.66-0.75c0.64-0.19,1.33-0.29,2.08-0.29c1.58,0,2.85,0.24,3.82,0.73c0.97,0.49,1.72,1.16,2.26,2.01
		c0.54,0.86,0.91,1.87,1.1,3.03c0.19,1.16,0.29,2.42,0.29,3.78V45.8h-6.23v-9.89c0-0.58-0.02-1.18-0.06-1.81
		c-0.04-0.62-0.17-1.2-0.37-1.72c-0.21-0.53-0.53-0.96-0.96-1.29c-0.43-0.33-1.04-0.5-1.85-0.5c-0.8,0-1.45,0.15-1.95,0.44
		c-0.5,0.29-0.88,0.68-1.14,1.16c-0.26,0.48-0.44,1.03-0.52,1.64c-0.08,0.61-0.12,1.25-0.12,1.91V45.8h-6.23V14.4H156.83z"/>
	<path class="st3" d="M206.75,24.04c-0.64-0.77-1.42-1.37-2.35-1.79c-0.93-0.42-2-0.62-3.22-0.62c-1.22,0-2.35,0.24-3.39,0.71
		c-1.04,0.47-1.94,1.13-2.7,1.97c-0.76,0.85-1.36,1.85-1.79,3.01c-0.43,1.16-0.64,2.42-0.64,3.78c0,1.38,0.22,2.65,0.64,3.8
		c0.43,1.15,1.02,2.15,1.77,2.99c0.75,0.85,1.63,1.5,2.64,1.97c1.01,0.47,2.1,0.71,3.26,0.71c1.33,0,2.51-0.28,3.53-0.83
		c1.02-0.55,1.87-1.33,2.53-2.33l5.4,4.03c-1.25,1.74-2.82,3.03-4.74,3.86s-3.88,1.25-5.9,1.25c-2.3,0-4.42-0.36-6.35-1.08
		c-1.94-0.72-3.61-1.75-5.03-3.09c-1.41-1.34-2.51-2.97-3.3-4.88s-1.18-4.04-1.18-6.4s0.39-4.49,1.18-6.4s1.89-3.54,3.3-4.88
		c1.41-1.34,3.09-2.37,5.03-3.09c1.94-0.72,4.06-1.08,6.35-1.08c0.83,0,1.7,0.08,2.6,0.23c0.9,0.15,1.79,0.39,2.66,0.73
		c0.87,0.33,1.71,0.78,2.51,1.33c0.8,0.55,1.52,1.23,2.16,2.04L206.75,24.04z"/>
	<path class="st3" d="M215.19,25.62h6.23v3.24h0.08c0.66-1.25,1.45-2.18,2.37-2.8c0.91-0.62,2.06-0.93,3.45-0.93
		c0.36,0,0.72,0.01,1.08,0.04c0.36,0.03,0.69,0.08,1,0.17v5.69c-0.44-0.14-0.88-0.24-1.31-0.31c-0.43-0.07-0.88-0.1-1.35-0.1
		c-1.19,0-2.13,0.17-2.82,0.5c-0.69,0.33-1.23,0.8-1.6,1.39c-0.37,0.6-0.62,1.31-0.73,2.14c-0.11,0.83-0.17,1.74-0.17,2.74v8.43
		h-6.23V25.62z"/>
	<path class="st3" d="M250.45,42.31c-1,1.27-2.26,2.26-3.78,2.95c-1.52,0.69-3.1,1.04-4.74,1.04c-1.55,0-3.01-0.25-4.38-0.75
		c-1.37-0.5-2.56-1.21-3.57-2.14c-1.01-0.93-1.81-2.04-2.39-3.34c-0.58-1.3-0.87-2.76-0.87-4.36c0-1.61,0.29-3.06,0.87-4.36
		c0.58-1.3,1.38-2.42,2.39-3.34c1.01-0.93,2.2-1.64,3.57-2.14c1.37-0.5,2.83-0.75,4.38-0.75c1.44,0,2.75,0.25,3.93,0.75
		c1.18,0.5,2.17,1.21,2.99,2.14c0.82,0.93,1.45,2.04,1.89,3.34c0.44,1.3,0.66,2.76,0.66,4.36v1.95h-14.45
		c0.25,1.19,0.79,2.14,1.62,2.84c0.83,0.71,1.85,1.06,3.07,1.06c1.02,0,1.89-0.23,2.6-0.69c0.71-0.46,1.32-1.04,1.85-1.77
		L250.45,42.31z M245.17,33.43c0.03-1.05-0.32-1.95-1.04-2.7c-0.72-0.75-1.65-1.12-2.78-1.12c-0.69,0-1.3,0.11-1.83,0.33
		c-0.53,0.22-0.98,0.51-1.35,0.85c-0.37,0.35-0.66,0.75-0.87,1.2c-0.21,0.46-0.33,0.93-0.35,1.43H245.17z"/>
	<path class="st3" d="M274.29,42.31c-1,1.27-2.26,2.26-3.78,2.95c-1.52,0.69-3.1,1.04-4.74,1.04c-1.55,0-3.01-0.25-4.38-0.75
		c-1.37-0.5-2.56-1.21-3.57-2.14c-1.01-0.93-1.81-2.04-2.39-3.34c-0.58-1.3-0.87-2.76-0.87-4.36c0-1.61,0.29-3.06,0.87-4.36
		c0.58-1.3,1.38-2.42,2.39-3.34c1.01-0.93,2.2-1.64,3.57-2.14c1.37-0.5,2.83-0.75,4.38-0.75c1.44,0,2.75,0.25,3.93,0.75
		c1.18,0.5,2.17,1.21,2.99,2.14c0.82,0.93,1.45,2.04,1.89,3.34c0.44,1.3,0.66,2.76,0.66,4.36v1.95h-14.45
		c0.25,1.19,0.79,2.14,1.62,2.84c0.83,0.71,1.85,1.06,3.07,1.06c1.02,0,1.89-0.23,2.6-0.69c0.71-0.46,1.32-1.04,1.85-1.77
		L274.29,42.31z M269.02,33.43c0.03-1.05-0.32-1.95-1.04-2.7c-0.72-0.75-1.65-1.12-2.78-1.12c-0.69,0-1.3,0.11-1.83,0.33
		c-0.53,0.22-0.98,0.51-1.35,0.85c-0.37,0.35-0.66,0.75-0.87,1.2c-0.21,0.46-0.33,0.93-0.35,1.43H269.02z"/>
	<path class="st3" d="M279.02,14.4h6.23v19.19l6.89-7.97h7.64l-8.02,9.1L300,45.8h-7.85l-6.81-10.22h-0.08V45.8h-6.23V14.4z"/>
</g>
<g>
	<path class="st3" d="M96.81,52.16h4.78c0.67,0,1.3,0.06,1.89,0.18c0.59,0.12,1.11,0.33,1.55,0.63c0.44,0.3,0.79,0.7,1.05,1.2
		c0.26,0.5,0.39,1.14,0.39,1.9c0,0.75-0.12,1.38-0.36,1.89c-0.24,0.51-0.58,0.92-1,1.22c-0.42,0.3-0.93,0.52-1.51,0.65
		c-0.58,0.13-1.21,0.19-1.89,0.19h-2.07v5.02h-2.84V52.16z M99.64,57.62h1.89c0.26,0,0.5-0.02,0.74-0.07
		c0.24-0.05,0.45-0.13,0.64-0.24c0.19-0.12,0.34-0.27,0.45-0.47c0.12-0.2,0.17-0.45,0.17-0.76c0-0.33-0.08-0.59-0.23-0.79
		c-0.15-0.2-0.35-0.35-0.58-0.46c-0.24-0.11-0.5-0.18-0.79-0.21c-0.29-0.03-0.57-0.05-0.84-0.05h-1.46V57.62z"/>
	<path class="st3" d="M107.91,56.2h2.73v1.42h0.04c0.29-0.55,0.64-0.95,1.04-1.23c0.4-0.27,0.9-0.41,1.51-0.41
		c0.16,0,0.31,0.01,0.47,0.02c0.16,0.01,0.3,0.04,0.44,0.07v2.49c-0.19-0.06-0.38-0.11-0.57-0.14c-0.19-0.03-0.39-0.05-0.59-0.05
		c-0.52,0-0.93,0.07-1.24,0.22c-0.3,0.15-0.54,0.35-0.7,0.61c-0.16,0.26-0.27,0.57-0.32,0.94c-0.05,0.36-0.07,0.76-0.07,1.2v3.69
		h-2.73V56.2z"/>
	<path class="st3" d="M114.66,60.62c0-0.7,0.13-1.34,0.38-1.91c0.25-0.57,0.6-1.06,1.05-1.46c0.44-0.41,0.96-0.72,1.56-0.94
		c0.6-0.22,1.24-0.33,1.92-0.33c0.68,0,1.32,0.11,1.92,0.33c0.6,0.22,1.12,0.53,1.56,0.94c0.44,0.41,0.79,0.89,1.05,1.46
		c0.26,0.57,0.38,1.21,0.38,1.91c0,0.7-0.13,1.34-0.38,1.91c-0.25,0.57-0.6,1.06-1.05,1.46c-0.44,0.41-0.96,0.72-1.56,0.94
		c-0.6,0.22-1.24,0.33-1.92,0.33c-0.68,0-1.32-0.11-1.92-0.33c-0.6-0.22-1.12-0.53-1.56-0.94c-0.44-0.41-0.79-0.89-1.05-1.46
		C114.79,61.96,114.66,61.32,114.66,60.62z M117.39,60.62c0,0.67,0.19,1.21,0.57,1.62c0.38,0.41,0.92,0.62,1.61,0.62
		c0.69,0,1.23-0.21,1.61-0.62c0.38-0.41,0.57-0.95,0.57-1.62c0-0.67-0.19-1.21-0.57-1.62c-0.38-0.41-0.92-0.62-1.61-0.62
		c-0.69,0-1.23,0.21-1.61,0.62C117.58,59.41,117.39,59.95,117.39,60.62z"/>
	<path class="st3" d="M125.15,56.2h2.94l2.24,6h0.04l2.07-6h2.74l-3.49,8.84h-2.89L125.15,56.2z"/>
	<path class="st3" d="M136.01,53.42c0-0.44,0.15-0.81,0.46-1.12c0.31-0.31,0.68-0.46,1.12-0.46c0.44,0,0.81,0.15,1.12,0.46
		c0.31,0.31,0.46,0.68,0.46,1.12c0,0.44-0.15,0.81-0.46,1.12c-0.31,0.31-0.68,0.46-1.12,0.46c-0.44,0-0.81-0.16-1.12-0.46
		C136.16,54.23,136.01,53.86,136.01,53.42z M136.22,56.2h2.73v8.84h-2.73V56.2z"/>
	<path class="st3" d="M140.92,56.2h2.62v1.2h0.04c0.08-0.17,0.21-0.34,0.36-0.51c0.16-0.17,0.35-0.32,0.56-0.45
		c0.22-0.13,0.47-0.24,0.75-0.33c0.28-0.08,0.58-0.13,0.91-0.13c0.69,0,1.25,0.11,1.67,0.32s0.76,0.51,0.99,0.88
		c0.24,0.38,0.4,0.82,0.48,1.33c0.08,0.51,0.13,1.06,0.13,1.65v4.87h-2.73v-4.33c0-0.26-0.01-0.52-0.03-0.79
		c-0.02-0.27-0.07-0.52-0.16-0.75c-0.09-0.23-0.23-0.42-0.42-0.56c-0.19-0.15-0.46-0.22-0.81-0.22c-0.35,0-0.64,0.06-0.85,0.19
		c-0.22,0.13-0.38,0.3-0.5,0.51c-0.11,0.21-0.19,0.45-0.23,0.72c-0.04,0.27-0.05,0.55-0.05,0.84v4.4h-2.73V56.2z"/>
	<path class="st3" d="M157.33,59.06c-0.13-0.19-0.32-0.35-0.56-0.48c-0.24-0.13-0.5-0.19-0.78-0.19c-0.69,0-1.23,0.21-1.61,0.62
		c-0.38,0.41-0.57,0.95-0.57,1.62c0,0.67,0.19,1.21,0.57,1.62c0.38,0.41,0.92,0.62,1.61,0.62c0.3,0,0.56-0.07,0.78-0.2
		c0.22-0.13,0.41-0.29,0.56-0.47l1.8,1.89c-0.42,0.44-0.92,0.74-1.5,0.92c-0.58,0.18-1.12,0.26-1.65,0.26
		c-0.68,0-1.32-0.11-1.92-0.33c-0.6-0.22-1.12-0.53-1.56-0.94c-0.44-0.41-0.79-0.89-1.04-1.46c-0.26-0.57-0.38-1.21-0.38-1.91
		c0-0.7,0.13-1.34,0.38-1.91c0.25-0.57,0.6-1.06,1.04-1.46c0.44-0.41,0.96-0.72,1.56-0.94c0.6-0.22,1.24-0.33,1.92-0.33
		c0.52,0,1.07,0.09,1.65,0.26c0.58,0.18,1.08,0.48,1.5,0.92L157.33,59.06z"/>
	<path class="st3" d="M159.93,53.42c0-0.44,0.15-0.81,0.46-1.12c0.31-0.31,0.68-0.46,1.12-0.46c0.44,0,0.81,0.15,1.12,0.46
		c0.31,0.31,0.46,0.68,0.46,1.12c0,0.44-0.15,0.81-0.46,1.12c-0.31,0.31-0.68,0.46-1.12,0.46c-0.44,0-0.81-0.16-1.12-0.46
		C160.09,54.23,159.93,53.86,159.93,53.42z M160.15,56.2h2.73v8.84h-2.73V56.2z"/>
	<path class="st3" d="M170.39,63.93h-0.04c-0.3,0.47-0.71,0.81-1.21,1.02c-0.5,0.21-1.03,0.31-1.59,0.31
		c-0.41,0-0.81-0.06-1.19-0.17c-0.38-0.12-0.72-0.29-1.01-0.52c-0.29-0.23-0.52-0.51-0.69-0.85c-0.17-0.34-0.25-0.73-0.25-1.18
		c0-0.51,0.09-0.94,0.28-1.29c0.19-0.35,0.44-0.64,0.76-0.87c0.32-0.23,0.69-0.41,1.1-0.54c0.41-0.13,0.84-0.22,1.28-0.28
		c0.44-0.06,0.88-0.1,1.33-0.11c0.44-0.01,0.85-0.02,1.23-0.02c0-0.48-0.17-0.87-0.52-1.15c-0.34-0.28-0.75-0.43-1.23-0.43
		c-0.45,0-0.86,0.09-1.23,0.28c-0.37,0.19-0.7,0.45-0.99,0.77l-1.45-1.49c0.51-0.47,1.1-0.83,1.78-1.06
		c0.68-0.24,1.38-0.35,2.11-0.35c0.8,0,1.46,0.1,1.97,0.3c0.51,0.2,0.93,0.49,1.24,0.88c0.31,0.39,0.53,0.86,0.65,1.43
		c0.12,0.56,0.18,1.22,0.18,1.96v4.49h-2.51V63.93z M169.72,61.17c-0.21,0-0.46,0.01-0.77,0.03s-0.61,0.07-0.89,0.15
		c-0.28,0.08-0.53,0.21-0.73,0.38c-0.2,0.17-0.3,0.41-0.3,0.71c0,0.33,0.14,0.57,0.42,0.73c0.28,0.16,0.57,0.24,0.87,0.24
		c0.27,0,0.52-0.04,0.77-0.11c0.25-0.07,0.47-0.18,0.66-0.31c0.19-0.13,0.35-0.3,0.46-0.51c0.12-0.21,0.17-0.45,0.17-0.73v-0.58
		H169.72z"/>
	<path class="st3" d="M174.64,51.29h2.73v13.75h-2.73V51.29z"/>
	<path class="st3" d="M185.06,52.16h4.78c0.67,0,1.3,0.06,1.89,0.18c0.59,0.12,1.11,0.33,1.55,0.63c0.44,0.3,0.79,0.7,1.05,1.2
		c0.26,0.5,0.39,1.14,0.39,1.9c0,0.75-0.12,1.38-0.36,1.89c-0.24,0.51-0.58,0.92-1,1.22c-0.42,0.3-0.93,0.52-1.51,0.65
		c-0.58,0.13-1.21,0.19-1.89,0.19h-2.07v5.02h-2.84V52.16z M187.9,57.62h1.89c0.26,0,0.5-0.02,0.74-0.07
		c0.24-0.05,0.45-0.13,0.64-0.24c0.19-0.12,0.34-0.27,0.45-0.47c0.12-0.2,0.17-0.45,0.17-0.76c0-0.33-0.08-0.59-0.23-0.79
		c-0.15-0.2-0.35-0.35-0.58-0.46c-0.24-0.11-0.5-0.18-0.79-0.21c-0.29-0.03-0.57-0.05-0.84-0.05h-1.46V57.62z"/>
	<path class="st3" d="M201.72,63.93h-0.04c-0.3,0.47-0.71,0.81-1.21,1.02c-0.5,0.21-1.03,0.31-1.59,0.31
		c-0.41,0-0.81-0.06-1.19-0.17c-0.38-0.12-0.72-0.29-1.01-0.52c-0.29-0.23-0.52-0.51-0.69-0.85c-0.17-0.34-0.25-0.73-0.25-1.18
		c0-0.51,0.09-0.94,0.28-1.29c0.19-0.35,0.44-0.64,0.76-0.87c0.32-0.23,0.69-0.41,1.1-0.54c0.41-0.13,0.84-0.22,1.28-0.28
		c0.44-0.06,0.88-0.1,1.33-0.11c0.44-0.01,0.85-0.02,1.23-0.02c0-0.48-0.17-0.87-0.52-1.15c-0.34-0.28-0.75-0.43-1.23-0.43
		c-0.45,0-0.86,0.09-1.23,0.28c-0.37,0.19-0.7,0.45-0.99,0.77l-1.45-1.49c0.51-0.47,1.1-0.83,1.78-1.06
		c0.68-0.24,1.38-0.35,2.11-0.35c0.8,0,1.46,0.1,1.97,0.3c0.51,0.2,0.93,0.49,1.24,0.88c0.31,0.39,0.53,0.86,0.65,1.43
		c0.12,0.56,0.18,1.22,0.18,1.96v4.49h-2.51V63.93z M201.04,61.17c-0.21,0-0.46,0.01-0.77,0.03c-0.31,0.02-0.61,0.07-0.89,0.15
		c-0.28,0.08-0.53,0.21-0.73,0.38c-0.2,0.17-0.3,0.41-0.3,0.71c0,0.33,0.14,0.57,0.42,0.73c0.28,0.16,0.57,0.24,0.87,0.24
		c0.27,0,0.52-0.04,0.77-0.11c0.25-0.07,0.47-0.18,0.66-0.31c0.19-0.13,0.35-0.3,0.46-0.51c0.12-0.21,0.17-0.45,0.17-0.73v-0.58
		H201.04z"/>
	<path class="st3" d="M205.93,56.2h2.73v1.42h0.04c0.29-0.55,0.64-0.95,1.04-1.23c0.4-0.27,0.9-0.41,1.51-0.41
		c0.16,0,0.31,0.01,0.47,0.02c0.16,0.01,0.3,0.04,0.44,0.07v2.49c-0.19-0.06-0.38-0.11-0.57-0.14c-0.19-0.03-0.39-0.05-0.59-0.05
		c-0.52,0-0.93,0.07-1.24,0.22c-0.3,0.15-0.54,0.35-0.7,0.61c-0.16,0.26-0.27,0.57-0.32,0.94c-0.05,0.36-0.07,0.76-0.07,1.2v3.69
		h-2.73V56.2z"/>
	<path class="st3" d="M213.33,51.29h2.73v8.4l3.02-3.49h3.35l-3.51,3.98l3.6,4.85h-3.44l-2.98-4.47h-0.04v4.47h-2.73V51.29z"/>
</g>
</svg>
