<?xml version="1.0" encoding="utf-8"?>
<!-- Generator: Adobe Illustrator 26.5.0, SVG Export Plug-In . SVG Version: 6.00 Build 0)  -->
<svg version="1.1" id="Layer_1" xmlns="http://www.w3.org/2000/svg" xmlns:xlink="http://www.w3.org/1999/xlink" x="0px" y="0px"
	 viewBox="0 0 270 71.28" style="enable-background:new 0 0 270 71.28;" xml:space="preserve">
<style type="text/css">
	.st0{fill:#FFFFFF;}
</style>
<g>
	<path class="st0" d="M0.69,3.4h26.17v7.93H9.28v7.93h16.25v7.93H9.28v15.21H0.69V3.4z"/>
	<path class="st0" d="M31.43,7.2c0-1.32,0.47-2.45,1.41-3.39c0.94-0.94,2.07-1.41,3.39-1.41c1.32,0,2.45,0.47,3.39,1.41
		c0.94,0.94,1.41,2.07,1.41,3.39s-0.47,2.45-1.41,3.39c-0.94,0.94-2.07,1.41-3.39,1.41c-1.32,0-2.45-0.47-3.39-1.41
		C31.9,9.65,31.43,8.52,31.43,7.2z M32.09,15.63h8.26v26.78h-8.26V15.63z"/>
	<path class="st0" d="M61.46,23.51c-1.21-1.51-2.81-2.26-4.79-2.26c-0.7,0-1.38,0.16-2.04,0.49s-0.99,0.9-0.99,1.71
		c0,0.66,0.34,1.15,1.02,1.46s1.54,0.59,2.59,0.83c1.05,0.24,2.17,0.5,3.36,0.77c1.19,0.27,2.31,0.71,3.36,1.29
		c1.05,0.59,1.91,1.39,2.59,2.4c0.68,1.01,1.02,2.36,1.02,4.05c0,1.73-0.38,3.15-1.13,4.27c-0.75,1.12-1.72,2.02-2.89,2.7
		c-1.18,0.68-2.5,1.16-3.97,1.43c-1.47,0.28-2.92,0.41-4.35,0.41c-1.87,0-3.77-0.27-5.67-0.8c-1.91-0.53-3.53-1.48-4.85-2.84
		l5.01-5.57c0.77,0.96,1.63,1.68,2.56,2.18c0.94,0.5,2.03,0.74,3.28,0.74c0.95,0,1.82-0.14,2.59-0.41c0.77-0.28,1.16-0.78,1.16-1.52
		c0-0.7-0.34-1.22-1.02-1.57c-0.68-0.35-1.54-0.64-2.59-0.88c-1.05-0.24-2.17-0.5-3.36-0.77c-1.19-0.28-2.31-0.69-3.36-1.24
		c-1.05-0.55-1.91-1.33-2.59-2.34c-0.68-1.01-1.02-2.36-1.02-4.05c0-1.58,0.32-2.94,0.96-4.08c0.64-1.14,1.49-2.07,2.53-2.81
		c1.05-0.73,2.25-1.28,3.61-1.63c1.36-0.35,2.74-0.52,4.13-0.52c1.76,0,3.54,0.26,5.34,0.77c1.8,0.51,3.32,1.43,4.57,2.75
		L61.46,23.51z"/>
	<path class="st0" d="M80.08,0.75v18.51h0.11c0.18-0.51,0.5-1.03,0.94-1.54c0.44-0.51,0.97-0.97,1.6-1.38
		c0.62-0.4,1.36-0.73,2.2-0.99c0.85-0.26,1.76-0.39,2.75-0.39c2.09,0,3.78,0.32,5.07,0.96c1.29,0.64,2.29,1.53,3,2.67
		c0.72,1.14,1.2,2.48,1.46,4.02c0.26,1.54,0.39,3.21,0.39,5.01v14.77h-8.26V29.29c0-0.77-0.03-1.57-0.08-2.4
		c-0.05-0.83-0.22-1.59-0.5-2.29c-0.27-0.7-0.7-1.27-1.27-1.71c-0.57-0.44-1.39-0.66-2.45-0.66c-1.07,0-1.93,0.19-2.59,0.58
		c-0.66,0.39-1.17,0.9-1.52,1.54c-0.35,0.64-0.58,1.37-0.69,2.18c-0.11,0.81-0.16,1.65-0.16,2.53v13.33h-8.27V0.75H80.08z"/>
	<path class="st0" d="M146.31,13.54c-0.85-1.03-1.88-1.82-3.11-2.37s-2.65-0.83-4.27-0.83c-1.62,0-3.11,0.31-4.49,0.94
		c-1.38,0.62-2.57,1.5-3.58,2.62c-1.01,1.12-1.8,2.45-2.37,3.99c-0.57,1.54-0.85,3.21-0.85,5.01c0,1.84,0.29,3.52,0.85,5.04
		c0.57,1.53,1.35,2.85,2.34,3.97c0.99,1.12,2.16,1.99,3.5,2.62c1.34,0.62,2.78,0.94,4.33,0.94c1.76,0,3.32-0.37,4.68-1.1
		c1.36-0.73,2.48-1.76,3.36-3.09l7.16,5.34c-1.65,2.31-3.75,4.02-6.28,5.12c-2.53,1.1-5.14,1.65-7.82,1.65
		c-3.05,0-5.86-0.48-8.43-1.43c-2.57-0.95-4.79-2.32-6.67-4.11c-1.87-1.78-3.33-3.94-4.38-6.47s-1.57-5.36-1.57-8.48
		s0.52-5.95,1.57-8.49s2.51-4.69,4.38-6.47c1.87-1.78,4.09-3.15,6.67-4.1c2.57-0.95,5.38-1.43,8.43-1.43c1.1,0,2.25,0.1,3.44,0.3
		c1.19,0.2,2.37,0.52,3.53,0.97c1.16,0.44,2.27,1.03,3.33,1.76c1.07,0.74,2.02,1.64,2.87,2.7L146.31,13.54z"/>
	<path class="st0" d="M157.49,15.63h8.27v4.3h0.11c0.88-1.65,1.93-2.89,3.14-3.72c1.21-0.83,2.74-1.24,4.57-1.24
		c0.48,0,0.95,0.02,1.43,0.05c0.48,0.04,0.92,0.11,1.32,0.22v7.55c-0.59-0.18-1.17-0.32-1.74-0.41c-0.57-0.09-1.17-0.14-1.79-0.14
		c-1.58,0-2.83,0.22-3.75,0.66c-0.92,0.44-1.63,1.06-2.12,1.85c-0.5,0.79-0.82,1.73-0.96,2.84c-0.15,1.1-0.22,2.31-0.22,3.64v11.19
		h-8.27V15.63z"/>
	<path class="st0" d="M204.27,37.78c-1.32,1.69-2.99,2.99-5.01,3.91c-2.02,0.92-4.11,1.38-6.28,1.38c-2.06,0-3.99-0.33-5.81-0.99
		c-1.82-0.66-3.4-1.61-4.74-2.84c-1.34-1.23-2.4-2.71-3.17-4.44c-0.77-1.73-1.16-3.65-1.16-5.79c0-2.13,0.39-4.06,1.16-5.79
		c0.77-1.73,1.83-3.2,3.17-4.43c1.34-1.23,2.92-2.18,4.74-2.84c1.82-0.66,3.76-0.99,5.81-0.99c1.91,0,3.65,0.33,5.21,0.99
		c1.56,0.66,2.88,1.61,3.97,2.84c1.08,1.23,1.92,2.71,2.51,4.43c0.59,1.73,0.88,3.66,0.88,5.79v2.59h-19.17
		c0.33,1.58,1.05,2.84,2.15,3.77c1.1,0.94,2.46,1.41,4.08,1.41c1.36,0,2.51-0.3,3.44-0.91c0.94-0.61,1.75-1.39,2.45-2.34
		L204.27,37.78z M197.27,25.99c0.04-1.4-0.42-2.59-1.38-3.58c-0.95-0.99-2.19-1.49-3.69-1.49c-0.92,0-1.73,0.15-2.42,0.44
		c-0.7,0.29-1.29,0.67-1.79,1.13c-0.5,0.46-0.88,0.99-1.16,1.6c-0.28,0.61-0.43,1.24-0.47,1.9H197.27z"/>
	<path class="st0" d="M235.9,37.78c-1.32,1.69-2.99,2.99-5.01,3.91c-2.02,0.92-4.11,1.38-6.28,1.38c-2.06,0-3.99-0.33-5.81-0.99
		c-1.82-0.66-3.4-1.61-4.74-2.84c-1.34-1.23-2.4-2.71-3.17-4.44c-0.77-1.73-1.16-3.65-1.16-5.79c0-2.13,0.39-4.06,1.16-5.79
		c0.77-1.73,1.83-3.2,3.17-4.43c1.34-1.23,2.92-2.18,4.74-2.84c1.82-0.66,3.76-0.99,5.81-0.99c1.91,0,3.65,0.33,5.21,0.99
		c1.56,0.66,2.88,1.61,3.97,2.84c1.08,1.23,1.92,2.71,2.51,4.43c0.59,1.73,0.88,3.66,0.88,5.79v2.59h-19.17
		c0.33,1.58,1.05,2.84,2.15,3.77c1.1,0.94,2.46,1.41,4.08,1.41c1.36,0,2.51-0.3,3.44-0.91c0.94-0.61,1.75-1.39,2.45-2.34
		L235.9,37.78z M228.9,25.99c0.04-1.4-0.42-2.59-1.38-3.58c-0.95-0.99-2.19-1.49-3.69-1.49c-0.92,0-1.73,0.15-2.42,0.44
		c-0.7,0.29-1.29,0.67-1.79,1.13c-0.5,0.46-0.88,0.99-1.16,1.6c-0.28,0.61-0.43,1.24-0.47,1.9H228.9z"/>
	<path class="st0" d="M242.18,0.75h8.27v25.45l9.15-10.58h10.14L259.09,27.7L270,42.41h-10.41l-9.04-13.55h-0.11v13.55h-8.27V0.75z"
		/>
</g>
<g>
	<path class="st0" d="M51.96,50.85h6.34c0.88,0,1.72,0.08,2.51,0.24c0.79,0.16,1.48,0.44,2.06,0.83c0.59,0.39,1.05,0.92,1.4,1.59
		c0.35,0.67,0.52,1.51,0.52,2.52c0,1-0.16,1.83-0.48,2.51c-0.32,0.68-0.76,1.21-1.33,1.62s-1.23,0.69-2,0.86
		c-0.77,0.17-1.61,0.25-2.51,0.25h-2.75v6.66h-3.76V50.85z M55.73,58.08h2.51c0.34,0,0.66-0.03,0.98-0.1
		c0.31-0.06,0.59-0.17,0.84-0.32c0.25-0.15,0.45-0.36,0.6-0.63c0.15-0.27,0.23-0.6,0.23-1c0-0.43-0.1-0.78-0.3-1.05
		c-0.2-0.27-0.46-0.47-0.77-0.61c-0.31-0.15-0.66-0.24-1.05-0.28c-0.39-0.04-0.76-0.06-1.11-0.06h-1.93V58.08z"/>
	<path class="st0" d="M66.7,56.2h3.62v1.88h0.05c0.39-0.72,0.84-1.27,1.38-1.63c0.53-0.36,1.2-0.54,2-0.54
		c0.21,0,0.42,0.01,0.63,0.02c0.21,0.02,0.4,0.05,0.58,0.1v3.3c-0.26-0.08-0.51-0.14-0.76-0.18c-0.25-0.04-0.51-0.06-0.78-0.06
		c-0.69,0-1.24,0.1-1.64,0.29c-0.4,0.19-0.71,0.46-0.93,0.81c-0.22,0.35-0.36,0.76-0.42,1.24c-0.07,0.48-0.1,1.01-0.1,1.59v4.9H66.7
		V56.2z"/>
	<path class="st0" d="M75.65,62.06c0-0.93,0.17-1.78,0.51-2.53c0.34-0.76,0.8-1.4,1.39-1.94c0.59-0.54,1.28-0.95,2.07-1.24
		c0.8-0.29,1.65-0.43,2.55-0.43c0.9,0,1.75,0.14,2.55,0.43c0.8,0.29,1.49,0.7,2.07,1.24c0.59,0.54,1.05,1.19,1.39,1.94
		c0.34,0.76,0.51,1.6,0.51,2.53c0,0.93-0.17,1.78-0.51,2.53c-0.34,0.76-0.8,1.4-1.39,1.94c-0.59,0.54-1.28,0.95-2.07,1.24
		c-0.8,0.29-1.65,0.43-2.55,0.43c-0.9,0-1.75-0.15-2.55-0.43c-0.8-0.29-1.49-0.7-2.07-1.24c-0.59-0.54-1.05-1.19-1.39-1.94
		C75.82,63.84,75.65,63,75.65,62.06z M79.27,62.06c0,0.88,0.25,1.6,0.76,2.15c0.51,0.55,1.22,0.82,2.13,0.82s1.63-0.27,2.14-0.82
		c0.51-0.55,0.76-1.26,0.76-2.15c0-0.88-0.25-1.6-0.76-2.15c-0.51-0.55-1.22-0.82-2.14-0.82s-1.63,0.27-2.13,0.82
		C79.52,60.46,79.27,61.18,79.27,62.06z"/>
	<path class="st0" d="M89.57,56.2h3.91l2.97,7.96h0.05l2.75-7.96h3.64l-4.63,11.72h-3.84L89.57,56.2z"/>
	<path class="st0" d="M103.97,52.51c0-0.58,0.2-1.07,0.62-1.48c0.41-0.41,0.9-0.62,1.48-0.62s1.07,0.2,1.48,0.62
		c0.41,0.41,0.62,0.9,0.62,1.48c0,0.58-0.2,1.07-0.62,1.48c-0.41,0.41-0.9,0.62-1.48,0.62s-1.07-0.21-1.48-0.62
		C104.17,53.58,103.97,53.09,103.97,52.51z M104.26,56.2h3.62v11.72h-3.62V56.2z"/>
	<path class="st0" d="M110.48,56.2h3.47v1.59H114c0.11-0.22,0.27-0.45,0.48-0.68c0.21-0.22,0.46-0.42,0.75-0.6
		c0.29-0.18,0.62-0.32,0.99-0.43c0.37-0.11,0.77-0.17,1.21-0.17c0.92,0,1.66,0.14,2.22,0.42c0.56,0.28,1,0.67,1.31,1.17
		c0.31,0.5,0.53,1.09,0.64,1.76c0.11,0.68,0.17,1.41,0.17,2.19v6.46h-3.62v-5.74c0-0.34-0.01-0.69-0.04-1.05
		c-0.02-0.36-0.1-0.7-0.22-1c-0.12-0.31-0.31-0.56-0.55-0.75c-0.25-0.19-0.61-0.29-1.07-0.29c-0.47,0-0.84,0.08-1.13,0.25
		c-0.29,0.17-0.51,0.39-0.66,0.68c-0.15,0.28-0.25,0.6-0.3,0.95c-0.05,0.35-0.07,0.72-0.07,1.11v5.84h-3.62V56.2z"/>
	<path class="st0" d="M132.26,59.99c-0.18-0.26-0.43-0.47-0.75-0.64c-0.32-0.17-0.67-0.25-1.04-0.25c-0.92,0-1.63,0.27-2.14,0.82
		c-0.51,0.55-0.76,1.26-0.76,2.15c0,0.88,0.25,1.6,0.76,2.15c0.51,0.55,1.22,0.82,2.14,0.82c0.4,0,0.75-0.09,1.04-0.27
		c0.29-0.18,0.54-0.39,0.75-0.63l2.39,2.51c-0.56,0.58-1.23,0.98-1.99,1.22c-0.76,0.23-1.49,0.35-2.18,0.35
		c-0.9,0-1.75-0.15-2.55-0.43c-0.8-0.29-1.49-0.7-2.07-1.24c-0.59-0.54-1.05-1.19-1.39-1.94c-0.34-0.76-0.51-1.6-0.51-2.53
		c0-0.93,0.17-1.78,0.51-2.53c0.34-0.76,0.8-1.4,1.39-1.94c0.59-0.54,1.28-0.95,2.07-1.24c0.8-0.29,1.64-0.43,2.55-0.43
		c0.69,0,1.42,0.12,2.18,0.35c0.76,0.23,1.43,0.64,1.99,1.22L132.26,59.99z"/>
	<path class="st0" d="M135.71,52.51c0-0.58,0.2-1.07,0.62-1.48c0.41-0.41,0.9-0.62,1.48-0.62c0.58,0,1.07,0.2,1.48,0.62
		c0.41,0.41,0.62,0.9,0.62,1.48c0,0.58-0.2,1.07-0.62,1.48c-0.41,0.41-0.9,0.62-1.48,0.62c-0.58,0-1.07-0.21-1.48-0.62
		C135.91,53.58,135.71,53.09,135.71,52.51z M136,56.2h3.62v11.72H136V56.2z"/>
	<path class="st0" d="M149.58,66.45h-0.05c-0.4,0.63-0.94,1.08-1.6,1.35c-0.67,0.27-1.37,0.41-2.11,0.41
		c-0.55,0-1.07-0.08-1.58-0.23c-0.51-0.15-0.95-0.38-1.34-0.69c-0.39-0.31-0.69-0.68-0.92-1.13c-0.22-0.45-0.34-0.97-0.34-1.57
		c0-0.68,0.12-1.25,0.37-1.71c0.25-0.47,0.59-0.85,1.01-1.16c0.42-0.31,0.91-0.54,1.46-0.71s1.11-0.29,1.7-0.37
		c0.59-0.08,1.17-0.13,1.76-0.15c0.59-0.02,1.13-0.02,1.63-0.02c0-0.64-0.23-1.15-0.69-1.53c-0.46-0.38-1-0.57-1.63-0.57
		c-0.59,0-1.14,0.12-1.63,0.37c-0.49,0.25-0.93,0.59-1.31,1.02l-1.93-1.98c0.68-0.63,1.46-1.1,2.36-1.41
		c0.9-0.31,1.83-0.47,2.8-0.47c1.06,0,1.93,0.13,2.62,0.4c0.68,0.27,1.23,0.66,1.64,1.17c0.41,0.51,0.7,1.15,0.86,1.89
		c0.16,0.75,0.24,1.61,0.24,2.59v5.96h-3.33V66.45z M148.68,62.79c-0.27,0-0.61,0.01-1.02,0.04s-0.8,0.09-1.18,0.2
		c-0.38,0.11-0.7,0.28-0.96,0.51c-0.27,0.22-0.4,0.54-0.4,0.94c0,0.43,0.19,0.76,0.56,0.97c0.37,0.21,0.76,0.31,1.16,0.31
		c0.35,0,0.7-0.05,1.02-0.15c0.33-0.1,0.62-0.23,0.88-0.41c0.26-0.18,0.46-0.4,0.61-0.68c0.15-0.27,0.23-0.59,0.23-0.96v-0.77
		H148.68z"/>
	<path class="st0" d="M155.22,49.69h3.62v18.23h-3.62V49.69z"/>
	<path class="st0" d="M169.04,50.85h6.34c0.88,0,1.72,0.08,2.51,0.24c0.79,0.16,1.48,0.44,2.06,0.83c0.59,0.39,1.05,0.92,1.4,1.59
		c0.35,0.67,0.52,1.51,0.52,2.52c0,1-0.16,1.83-0.48,2.51c-0.32,0.68-0.76,1.21-1.33,1.62c-0.56,0.4-1.23,0.69-2,0.86
		c-0.77,0.17-1.61,0.25-2.51,0.25h-2.75v6.66h-3.76V50.85z M172.8,58.08h2.51c0.34,0,0.66-0.03,0.98-0.1
		c0.31-0.06,0.59-0.17,0.84-0.32s0.45-0.36,0.6-0.63c0.15-0.27,0.23-0.6,0.23-1c0-0.43-0.1-0.78-0.3-1.05
		c-0.2-0.27-0.46-0.47-0.77-0.61c-0.31-0.15-0.66-0.24-1.05-0.28c-0.39-0.04-0.76-0.06-1.11-0.06h-1.93V58.08z"/>
	<path class="st0" d="M191.13,66.45h-0.05c-0.4,0.63-0.94,1.08-1.6,1.35c-0.67,0.27-1.37,0.41-2.11,0.41
		c-0.55,0-1.07-0.08-1.58-0.23c-0.51-0.15-0.95-0.38-1.34-0.69c-0.39-0.31-0.69-0.68-0.92-1.13c-0.22-0.45-0.34-0.97-0.34-1.57
		c0-0.68,0.12-1.25,0.37-1.71c0.25-0.47,0.59-0.85,1.01-1.16c0.42-0.31,0.91-0.54,1.46-0.71c0.55-0.17,1.11-0.29,1.7-0.37
		c0.59-0.08,1.17-0.13,1.76-0.15c0.59-0.02,1.13-0.02,1.63-0.02c0-0.64-0.23-1.15-0.69-1.53c-0.46-0.38-1-0.57-1.63-0.57
		c-0.59,0-1.14,0.12-1.63,0.37c-0.49,0.25-0.93,0.59-1.31,1.02l-1.93-1.98c0.68-0.63,1.46-1.1,2.36-1.41
		c0.9-0.31,1.83-0.47,2.8-0.47c1.06,0,1.93,0.13,2.62,0.4c0.68,0.27,1.23,0.66,1.64,1.17c0.41,0.51,0.7,1.15,0.86,1.89
		c0.16,0.75,0.24,1.61,0.24,2.59v5.96h-3.33V66.45z M190.24,62.79c-0.27,0-0.61,0.01-1.02,0.04s-0.8,0.09-1.18,0.2
		c-0.38,0.11-0.7,0.28-0.96,0.51c-0.27,0.22-0.4,0.54-0.4,0.94c0,0.43,0.19,0.76,0.56,0.97c0.37,0.21,0.76,0.31,1.16,0.31
		c0.35,0,0.7-0.05,1.02-0.15c0.33-0.1,0.62-0.23,0.88-0.41c0.26-0.18,0.46-0.4,0.61-0.68c0.15-0.27,0.23-0.59,0.23-0.96v-0.77
		H190.24z"/>
	<path class="st0" d="M196.73,56.2h3.62v1.88h0.05c0.39-0.72,0.84-1.27,1.38-1.63c0.53-0.36,1.2-0.54,2-0.54
		c0.21,0,0.42,0.01,0.63,0.02c0.21,0.02,0.4,0.05,0.58,0.1v3.3c-0.26-0.08-0.51-0.14-0.76-0.18c-0.25-0.04-0.51-0.06-0.78-0.06
		c-0.69,0-1.24,0.1-1.64,0.29c-0.4,0.19-0.71,0.46-0.93,0.81c-0.22,0.35-0.36,0.76-0.42,1.24c-0.07,0.48-0.1,1.01-0.1,1.59v4.9
		h-3.62V56.2z"/>
	<path class="st0" d="M206.54,49.69h3.62v11.14l4-4.63h4.44l-4.65,5.28l4.78,6.44h-4.56l-3.96-5.93h-0.05v5.93h-3.62V49.69z"/>
</g>
</svg>
