<?xml version="1.0" encoding="utf-8"?>
<!-- Generator: Adobe Illustrator 26.5.0, SVG Export Plug-In . SVG Version: 6.00 Build 0)  -->
<svg version="1.1" id="Layer_1" xmlns="http://www.w3.org/2000/svg" xmlns:xlink="http://www.w3.org/1999/xlink" x="0px" y="0px"
	 viewBox="0 0 30 30" style="enable-background:new 0 0 30 30;" xml:space="preserve">
<style type="text/css">
	.st0{fill:#3B3B3B;}
</style>
<path class="st0" d="M0.89,24.82L24.82,0.89c1.19-1.19,3.11-1.19,4.29,0l0,0c1.19,1.19,1.19,3.11,0,4.29L5.18,29.11
	c-1.19,1.19-3.11,1.19-4.29,0l0,0C-0.3,27.93-0.3,26,0.89,24.82z"/>
<path class="st0" d="M5.18,0.89l23.93,23.93c1.19,1.19,1.19,3.11,0,4.29l0,0c-1.19,1.19-3.11,1.19-4.29,0L0.89,5.18
	C-0.3,4-0.3,2.07,0.89,0.89l0,0C2.07-0.3,4-0.3,5.18,0.89z"/>
</svg>
