<?xml version="1.0" encoding="utf-8"?>
<!-- Generator: Adobe Illustrator 26.5.0, SVG Export Plug-In . SVG Version: 6.00 Build 0)  -->
<svg version="1.1" id="Layer_1" xmlns="http://www.w3.org/2000/svg" xmlns:xlink="http://www.w3.org/1999/xlink" x="0px" y="0px"
	 viewBox="0 0 100 100" style="enable-background:new 0 0 100 100;" xml:space="preserve">
<style type="text/css">
	.st0{fill:url(#SVGID_1_);}
	.st1{fill:#EC724C;}
	.st2{fill:#89C464;}
	.st3{fill:#FFFFFF;}
	.st4{opacity:0.76;}
	.st5{fill:#6B97B0;}
	.st6{fill:#78ADB8;}
	.st7{opacity:0.6;fill:#FFFFFF;enable-background:new    ;}
	.st8{fill:#886753;}
	.st9{fill:#656464;}
</style>
<linearGradient id="SVGID_1_" gradientUnits="userSpaceOnUse" x1="-56.6906" y1="101.5247" x2="-56.6906" y2="48.8143" gradientTransform="matrix(1 0 0 -1 0 101.22)">
	<stop  offset="0" style="stop-color:#CD6758"/>
	<stop  offset="1" style="stop-color:#FFE33F"/>
</linearGradient>
<path class="st0" d="M-7,54.2h-99.4V18.7c0-10.2,8.3-18.5,18.5-18.5h62.4C-15.3,0.2-7,8.5-7,18.7C-7,18.7-7,54.2-7,54.2z"/>
<ellipse class="st1" cx="-67.8" cy="39.9" rx="11.9" ry="11.5"/>
<path class="st2" d="M-82.5,50.3l9.9-3.9l2.2-6.4l3.4,7.2l4.4-13l3.4,6.1c0,0,8.4-16.7,8.5-16.3c0.1,0.4,5.2,8.9,5.2,8.9l3.3-3
	l6,8.2l11.4-19.8l7.8,13.1l3.1-4l2.4,2.8l4.6-6.4v28.7h-75.6V50.3z"/>
<path class="st3" d="M-30,52.9H-84c-0.3,0-0.5-0.2-0.5-0.5v-0.2c0-0.3,0.2-0.5,0.5-0.5H-30c0.3,0,0.5,0.2,0.5,0.5v0.2
	C-29.5,52.7-29.7,52.9-30,52.9z"/>
<g class="st4">
	<ellipse class="st3" cx="-63" cy="50.6" rx="8" ry="7.4"/>
	<ellipse class="st3" cx="-77.4" cy="36.3" rx="8" ry="7.4"/>
	<ellipse class="st3" cx="-87.9" cy="43.2" rx="13.5" ry="12.5"/>
	<ellipse class="st3" cx="-71.9" cy="45.7" rx="8.9" ry="8.3"/>
	<g>
		<path class="st3" d="M-104.2,23.7c-0.7,0-1.5,0-2.2,0.1v28.4c0.7,0.1,1.5,0.1,2.2,0.1c8.6,0,15.5-6.4,15.5-14.4
			C-88.7,30.1-95.6,23.7-104.2,23.7z"/>
	</g>
</g>
<rect x="-106.4" y="58" class="st5" width="99.4" height="9"/>
<rect x="-106.4" y="49.8" class="st6" width="99.4" height="10.2"/>
<path class="st7" d="M-20.2,63h-54.1c-0.3,0-0.5-0.2-0.5-0.5v-0.2c0-0.3,0.2-0.5,0.5-0.5h54.1c0.3,0,0.5,0.2,0.5,0.5v0.2
	C-19.8,62.8-20,63-20.2,63z"/>
<path class="st7" d="M-10.1,52.9h-39.4c-0.3,0-0.5-0.2-0.5-0.5v-0.2c0-0.3,0.2-0.5,0.5-0.5h39.4c0.3,0,0.5,0.2,0.5,0.5v0.2
	C-9.6,52.7-9.8,52.9-10.1,52.9z"/>
<path class="st8" d="M-106.4,77.8H-7V82c0,9.9-8,18-18,18h-63.5c-9.9,0-18-8-18-18V77.8z"/>
<rect x="-106.4" y="66.7" class="st6" width="99.4" height="11.6"/>
<path class="st7" d="M-17.7,76.2h-38.9c-0.3,0-0.5-0.2-0.5-0.5v-0.2c0-0.3,0.2-0.5,0.5-0.5h38.9c0.3,0,0.5,0.2,0.5,0.5v0.2
	C-17.2,76-17.4,76.2-17.7,76.2z"/>
<path class="st7" d="M-13.6,73.6h-18c-0.3,0-0.5-0.2-0.5-0.5v-0.2c0-0.3,0.2-0.5,0.5-0.5h18c0.3,0,0.5,0.2,0.5,0.5v0.2
	C-13.1,73.4-13.3,73.6-13.6,73.6z"/>
<g>
	<path class="st8" d="M-97.1,46.1c0.4,1.2,2.2,2.6,3.3,3.2c0,0.1,0,0.1,0,0.2c0.5-0.5,0.9-1.5,1-2.4c0.5,0.7,0.4,2.3,0.4,3.6
		c0.8-0.1,1.7-0.4,2.3,0c0.5,0,1,0,1.5,0c0.2-1,0.4-2.1,0.4-3.6c0.1,0,0.1,0,0.2,0c0.2,0.6,0.4,1.2,0.6,1.9c0.5-0.8,0-6.5,0-8.2
		c-1-0.8-2.3-1.9-2.9-3.2c-0.3-0.7-0.2-1.5-0.6-2.1c0-0.3,0-0.5,0-0.7c0.6,0.8,0.7,2,1.3,2.8c0.6,0.8,1.9,1.3,2.5,2.1
		c1.6-0.3,4.2-5.3,4.4-7.3c1.2,1.9-2.2,7.7-3.3,8.4c0,3.1,0.2,5,1.3,6.7c5.9,0.1,8.4-6.5,8.3-12.7c1.7,2.3-0.1,9.7-1.3,11
		c0,0.1,0,0.3,0,0.4c3.2-0.1,3.8-2.3,5.4-3.9c0-0.1,0-0.1,0-0.2c0.1,0,0.1,0,0.2,0c-0.7,2.9-2.7,4.9-5.4,5.8c-3.1,1-8.1,0.7-9.5,3.4
		c-0.3,0.2,0.3,0.6,0.6,0.7c0.2,0.2,0,0.1,0.4,0.2c1.1-1.3,2.4-1.5,3.9-2.4c0.4,0,0.8,0,1.2,0c-0.4,2-1.6,4.1-3.5,4.7
		c0.1,2.8,2.4,3.6,4.3,4.7c-0.2,1.5-1.5,1.8-2.1,3.2c-1.4-0.1-4.2-0.9-5.2-0.2c-2.1,0.1-3.9,2.5-4.6,3.9c1.1-0.7,2-1.8,3.3-2.4
		c0-0.1,0-0.1,0-0.2c1,1.1,1.3,2.4,2.9,3c2.5,0.9,5.9-0.3,8.9,0.4c1.9,0.4,4.7,0.2,7,0.2c6.5,0,12.1,0.1,16,2.4
		c2.5,1.5,3.4,2.2,4.3,5.4c0.2,0.8,0.3,2.3-0.2,3c-0.1,0.3,0,0.2-0.2,0.4c-0.5-0.9-1.1-2.2-1.7-3c0-0.1,0-0.1,0-0.2
		c-0.1,0-0.1,0-0.2,0c0,2-0.1,4.5,0,6.9h-48.3c-0.5-0.7-0.6-1.3-0.9-2.1c-0.5-1.8-0.3-5.3-0.3-7c0-1.3,0-2.6,0-3.9
		c0.5-2.3,0.1-5.1,0.8-7.3c0.4-1.4,1.4-2.5,2.1-3.5c0.5-0.8,0.8-1.7,1.5-2.2c-0.1-1.6-0.7-1.3-1.5-2.1c-1.3-1.2-2.2-3.1-2.3-5.4
		c2.1,0.3,4.4,1.7,5.6,3c0.1,0,0.1,0,0.2,0c-0.9-2.2-5.4-4.5-7-6.5c-1.6-2.1-4.5-6.5-3.5-10.8c0.3-1.5,0.9-2.9,1.2-4.3
		c0.7,1.1-0.7,3.4,0,4.5c0,0.4,0,0.9,0,1.3c0.1,0,0.1,0,0.2,0c0.8-3.2,3.5-4.2,5.2-6.3c0.1,0,0.3,0,0.4,0c-1.3,1.9-3.3,3.2-4.3,5.4
		c-2.1,5,1.4,8.8,3.7,10.8c0.4-0.1,0.4,0,0.6-0.2c1.6-0.6,1.6-3.1,2.1-4.7c0.6-1.5,1.2-3,1.7-4.5c0.6-1,1.7-1.8,2.3-2.8
		c0.1,0,0.1,0,0.2,0c-0.5,1.5-1.7,2.7-2.3,4.1c-0.5,1.2-0.5,2.7-1.2,3.7c0,0.7,0,1.4,0,2.1c1.8,0.3,4.8-0.5,5.8-1.7
		c0.1,0,0.3,0,0.4,0c-1,1.4-3.1,2.7-4.8,3.4c-1.2,0.5-2.2,0.2-2.7,1.3C-97.1,45.9-97.2,46-97.1,46.1z"/>
</g>
<g>
	<g>
		<path class="st9" d="M50,0C22.4,0,0,22.4,0,50c0,27.6,22.4,50,50,50s50-22.4,50-50C100,22.4,77.6,0,50,0z M50,92.6
			C26.5,92.6,7.4,73.5,7.4,50C7.4,26.5,26.5,7.4,50,7.4S92.6,26.5,92.6,50C92.6,73.5,73.5,92.6,50,92.6z"/>
	</g>
	<g>
		<path class="st9" d="M83.9,55.4H16.1c-3,0-5.4-2.4-5.4-5.4v0c0-3,2.4-5.4,5.4-5.4h67.8c3,0,5.4,2.4,5.4,5.4v0
			C89.3,53,86.9,55.4,83.9,55.4z"/>
		<path class="st9" d="M44.6,83.9V16.1c0-3,2.4-5.4,5.4-5.4h0c3,0,5.4,2.4,5.4,5.4v67.8c0,3-2.4,5.4-5.4,5.4h0
			C47,89.3,44.6,86.9,44.6,83.9z"/>
	</g>
</g>
</svg>
