<?xml version="1.0" encoding="UTF-8"?><svg id="a" xmlns="http://www.w3.org/2000/svg" viewBox="0 0 221.46 244.85"><defs><style>.b{fill:none;stroke:#231f20;stroke-miterlimit:10;}.c{fill:#231f20;}</style></defs><circle class="c" cx="111.75" cy="22.92" r="22.92"/><path class="b" d="M148.37,169.22c.21,.26,.43,.51,.65,.75-.23-.24-.45-.49-.66-.75h.01Z"/><path class="b" d="M160.99,175.56c-.55-.01-1.09-.07-1.63-.15,.54,.07,1.08,.13,1.63,.15Z"/><path class="c" d="M209.85,141.38l-37.05,30.29c-.75,.61-1.54,1.14-2.35,1.6-.07,.04-.14,.09-.21,.13-.34,.19-.69,.36-1.05,.53-.11,.05-.22,.11-.33,.16-.34,.15-.69,.29-1.04,.42-.12,.05-.24,.1-.37,.14-.35,.12-.7,.22-1.05,.32-.13,.04-.26,.08-.4,.11-.34,.08-.69,.15-1.03,.22-.15,.03-.3,.06-.45,.08-.32,.05-.65,.09-.97,.12-.19,.02-.37,.03-.56,.05-.28,.02-.57,.03-.85,.04-.11,0-.22,.01-.33,.01-.27,0-.55-.01-.82-.02-.55-.02-1.09-.08-1.63-.15-.02,.01-.04,0-.07,0-.25-.04-.51-.08-.76-.13-.27-.05-.54-.11-.8-.17-.27-.06-.54-.13-.8-.21-.49-.14-.97-.3-1.45-.49-.17-.07-.33-.14-.5-.21-.19-.08-.38-.16-.57-.25-.19-.08-.38-.18-.57-.28-.24-.12-.48-.25-.71-.39-.04-.02-.07-.03-.1-.06-.18-.1-.36-.21-.54-.33-.27-.16-.54-.34-.8-.54-.23-.16-.46-.33-.68-.51-.22-.18-.44-.36-.66-.55-.21-.19-.42-.39-.63-.59-.25-.23-.48-.47-.7-.72-.22-.24-.44-.49-.65-.75h-.01l-26.44-31.9c-4.67-5.64-12.9-6.73-18.88-2.5l-35.47,25.06,27.69,39.19c2.76,3.92,1.83,9.34-2.09,12.1-3.91,2.77-9.33,1.84-12.1-2.08l-27.61-39.08c-.97-1.37-1.71-2.84-2.23-4.35-.08-.22-.15-.44-.22-.66-.04-.13-.08-.26-.11-.39-.13-.45-.23-.91-.32-1.37-1.31-6.52,1.22-13.48,7-17.57l32.48-22.95v-30.41c0-1.68-2.3-2.16-2.97-.61l-6.02,14.42c-3.05,7.06-11.25,10.31-18.31,7.26l-35.23-15.21c-3.53-1.53-5.15-5.63-3.63-9.16,1.14-2.63,3.71-4.2,6.4-4.2,.92,0,1.86,.18,2.76,.57l35.05,15.14,16.88-39.07c2.88-6.68,9.46-11,16.73-11h22.59c6.1,0,12.08,1.68,17.28,4.86l30.73,18.75c4.89,2.98,7.28,8.48,6.53,13.8-.12,.91-.33,1.82-.65,2.71-.31,.93-.74,1.84-1.27,2.71l-19.99,32.75c-2,3.29-6.29,4.32-9.57,2.32-3.28-2-4.32-6.29-2.32-9.57l20.04-32.82-23.75-14.5c-3.46-2.11-7.9,.38-7.9,4.43v47.62l28.37,34.7,37.05-30.29c3.71-3.03,9.18-2.48,12.22,1.23,3.03,3.71,2.48,9.18-1.23,12.22Z"/></svg>