<?xml version="1.0" encoding="utf-8"?>
<!-- Generator: Adobe Illustrator 26.5.0, SVG Export Plug-In . SVG Version: 6.00 Build 0)  -->
<svg version="1.1" id="a" xmlns="http://www.w3.org/2000/svg" xmlns:xlink="http://www.w3.org/1999/xlink" x="0px" y="0px"
	 viewBox="0 0 200 200" style="enable-background:new 0 0 200 200;" xml:space="preserve">
<style type="text/css">
	.st0{fill:#2F7DC1;}
	.st1{fill:#2F7DC1;stroke:#FFFFFF;stroke-miterlimit:10;}
</style>
<ellipse class="st0" cx="92.2" cy="27.4" rx="22.5" ry="20.2"/>
<path class="st1" d="M128.3,156.1c0.2,0.2,0.4,0.4,0.6,0.7C128.7,156.6,128.4,156.3,128.3,156.1L128.3,156.1L128.3,156.1z"/>
<path class="st1" d="M140.7,161.7c-0.5,0-1.1-0.1-1.6-0.1C139.6,161.6,140.1,161.7,140.7,161.7z"/>
<path class="st0" d="M188.7,131.6l-36.4,26.7c-0.7,0.5-1.5,1-2.3,1.4c-0.1,0-0.1,0.1-0.2,0.1c-0.3,0.2-0.7,0.3-1,0.5
	c-0.1,0-0.2,0.1-0.3,0.1c-0.3,0.1-0.7,0.3-1,0.4c-0.1,0-0.2,0.1-0.4,0.1c-0.3,0.1-0.7,0.2-1,0.3c-0.1,0-0.3,0.1-0.4,0.1
	c-0.3,0.1-0.7,0.1-1,0.2c-0.1,0-0.3,0.1-0.4,0.1c-0.3,0-0.6,0.1-1,0.1c-0.2,0-0.4,0-0.6,0c-0.3,0-0.6,0-0.8,0c-0.1,0-0.2,0-0.3,0
	c-0.3,0-0.5,0-0.8,0c-0.5,0-1.1-0.1-1.6-0.1c0,0,0,0-0.1,0c-0.2,0-0.5-0.1-0.7-0.1c-0.3,0-0.5-0.1-0.8-0.1c-0.3-0.1-0.5-0.1-0.8-0.2
	c-0.5-0.1-1-0.3-1.4-0.4c-0.2-0.1-0.3-0.1-0.5-0.2c-0.2-0.1-0.4-0.1-0.6-0.2c-0.2-0.1-0.4-0.2-0.6-0.2c-0.2-0.1-0.5-0.2-0.7-0.3
	c0,0-0.1,0-0.1-0.1c-0.2-0.1-0.4-0.2-0.5-0.3c-0.3-0.1-0.5-0.3-0.8-0.5c-0.2-0.1-0.5-0.3-0.7-0.4c-0.2-0.2-0.4-0.3-0.6-0.5
	c-0.2-0.2-0.4-0.3-0.6-0.5c-0.2-0.2-0.5-0.4-0.7-0.6c-0.2-0.2-0.4-0.4-0.6-0.7h0l-26-28.1c-4.6-5-12.7-5.9-18.6-2.2l-34.9,22.1
	L76,182.4c2.7,3.4,1.8,8.2-2.1,10.6c-3.8,2.4-9.2,1.6-11.9-1.8l-27.2-34.4c-1-1.2-1.7-2.5-2.2-3.8c-0.1-0.2-0.1-0.4-0.2-0.6
	c0-0.1-0.1-0.2-0.1-0.3c-0.1-0.4-0.2-0.8-0.3-1.2c-1.3-5.7,1.2-11.9,6.9-15.5l31.9-20.2V88.5c0-1.5-2.3-1.9-2.9-0.5l-5.9,12.7
	c-3,6.2-11.1,9.1-18,6.4L9.4,93.6c-3.5-1.3-5.1-5-3.6-8.1c1.1-2.3,3.6-3.7,6.3-3.7c0.9,0,1.8,0.2,2.7,0.5l34.5,13.3l16.6-34.4
	c2.8-5.9,9.3-9.7,16.5-9.7h22.2c6,0,11.9,1.5,17,4.3l30.2,16.5c4.8,2.6,7.2,7.5,6.4,12.1c-0.1,0.8-0.3,1.6-0.6,2.4
	c-0.3,0.8-0.7,1.6-1.2,2.4l-19.7,28.8c-2,2.9-6.2,3.8-9.4,2c-3.2-1.8-4.2-5.5-2.3-8.4l19.7-28.9l-23.4-12.8
	c-3.4-1.9-7.8,0.3-7.8,3.9v41.9l27.9,30.5l36.4-26.7c3.6-2.7,9-2.2,12,1.1C192.9,124.1,192.4,128.9,188.7,131.6L188.7,131.6z"/>
</svg>
