<?xml version="1.0" encoding="utf-8"?>
<!-- Generator: Adobe Illustrator 26.5.0, SVG Export Plug-In . SVG Version: 6.00 Build 0)  -->
<svg version="1.1" id="monster" xmlns="http://www.w3.org/2000/svg" xmlns:xlink="http://www.w3.org/1999/xlink" x="0px" y="0px"
	 viewBox="0 0 200 200" style="enable-background:new 0 0 200 200;" xml:space="preserve">
<style type="text/css">
	.st0{fill:#A90000;}
	.st1{fill:#FFFFFF;}
</style>
<path class="st0" d="M184.1,62.2c-0.2-2.9-3.9-4-5.7-1.8c-2.2,2.7-4.4,5.3-6.6,7.9c-3.7,4.3-7.9,7.9-13.2,10.1
	c-1.7,0.7-3.3,1.2-4.6-0.5c-1-1.3-0.5-2.7,0.1-4.1c1.2-2.6,2.8-5.2,3.3-8c0.7-4.1-1.4-7.2-5.1-8.8c-3.8-1.7-5.3,1.5-6.6,4
	c-3.2,6.2-10.4,6.8-15.2,10.7c-0.7,0.6-1.9,0.6-2.6-0.3c-1-1.3-0.7-2.8,0-4.1c2.8-5.5,7.3-9.4,12.9-11.3c11.6-4,16.3-11.5,14.1-23.6
	c-0.5-3.2-0.8-6.1,4.6-6.6c4.5-0.4,6.7-5.1,5.7-9.6c-0.9-4.6-5.1-4.7-8.8-4.3c-6.8,0.8-13.3,8.9-12.5,17.4
	c0.8,8.9-2.9,13.2-10.9,15.1c-1.4,0.3-2.7,1.1-4,1.7c-5,2.4-9.4,7.6-14.2,8.3c-4.9,0.7-7-7.7-12.2-9.8c-1.7-0.7-4.1-1.5-3.8-3.8
	s2.8-2.2,4.7-2.5c2.9-0.4,5.7-1.1,8.2-2.7c3.8-2.5,5.6-6,4.7-10.6c-0.6-2.9-1.4-6.2-4.9-6.6c-4.1-0.5-7.4,1.8-9.9,5
	c-1,1.4-1.8,3-3.1,4c-2.5,2-4.5,1.8-4.6-2.1c-0.1-3.4-0.4-7.1,1.9-9.8c3-3.6,3.5-6.7,2.3-9.6c-2.7-6.8-12.6-6.6-15.2,0.2
	c-1.2,3.3-1.3,6.9-0.6,10.8c1.1,7.5,0.4,13.7-7.4,18.6c-8.3,5.2-11.5,14.3-9.3,24.3c0.9,4.5-0.4,5.4-4.3,4.6
	c-1.9-0.4-3.8-0.8-5.7-1.2c-8.2-1.8-10.9-5.9-9.3-14.2c0.7-3.7,1.7-7.4-1.8-10.3c-2.3-2.1-5.1-1.4-7.5,0c-4,2.2-4.5,6.1-4.1,10.1
	c0.9,9,5.2,16.5,10.7,23.5c0.1,0.1,0.2,0.3,0.3,0.4c2.4,2.7-0.8,6.6-3.9,4.9c-0.3-0.1-0.5-0.2-0.7-0.3c-8-4.1-13.4-11-18.7-18v-0.1
	c-1.9-2.4-5.8-1.1-5.8,2v12.2c0,0.1,0,0.3,0,0.4c1,7.9,1.6,15.8,3.1,23.6c2,10,4.6,19.6,14.7,25.6c2.4,1.4,1.8,7.2,5.7,8.8
	c1.3,0.5,2,1.8,1.9,3.2c-0.6,6.1,5.5,6.3,10,8.1c3,1.2,3.1,4.2,3.1,6.9c-0.1,4.9-1.2,9.6-3,14.2c-1.1,2.8-1.6,5.8,3.1,4.3
	c5.4-1.8,8.2,1,10.7,5c4.7,7.5,11.2,12.7,19.3,16.1c0.3,0.1,0.5,0.2,0.7,0.3c6.4,2,10.7,12.5,17.1,8.8c11.3-6.6,24.4-11.3,32.5-22.6
	c3.4-4.7,6-10.3,13.7-7.4c2.5,1,3-0.9,2.3-3.2c-0.7-2.3-1.5-4.6-2.1-7c-2.8-11.7-2.6-13.1,6.9-16.9c2.3-0.9,5.5-2.3,4.9-4.7
	c-1.2-5.1,0.6-6.5,5.2-6.2c0.9,0.1,2.3-0.8,1.8-1.7c-3.9-6.5,2.7-6.8,5.4-9.3s4.7-5.5,6.2-8.9C182.6,100.5,185.3,77.8,184.1,62.2z
	 M163.3,15.3c0.9,2.1,1.9,4.6-0.7,5.7c-1.5,0.7-3.8-0.3-5.8-0.6C157.1,14.3,158.5,13.2,163.3,15.3z M112.8,21.2
	c0.9,2.1,1.9,4.6-0.7,5.7c-1.5,0.7-3.8-0.4-5.8-0.6C106.6,20.2,108,19.1,112.8,21.2z M43.9,46.6c-1.5,0.7-3.8-0.4-5.8-0.6
	c0.3-6.1,1.7-7.2,6.5-5.1C45.5,43,46.5,45.5,43.9,46.6z M96.3,4.6c0.9,2.1,1.9,4.6-0.7,5.7c-1.5,0.7-3.9-0.3-5.8-0.6
	C90.1,3.6,91.5,2.5,96.3,4.6z M89.3,143.4c2,0.9,3.4,1.6,4.6,2.2c-0.3,2.6-0.5,5-0.7,8.2C89.9,150.8,89,147.7,89.3,143.4z
	 M75.2,102.7c-1.3,1.8-1.9,2.6-2.6,3.4c-0.2,1.6-0.4,3.1-0.7,5.6c-2.9-0.5-5.7-0.7-8.3-1.5c-0.7-0.2-1.2-2.3-1-3.4
	c0.9-4.7,5.5-8.4,10.8-9c5.5-0.6,11,2.1,13.4,6.6c0.3,0.7,0.6,1.3,0.9,2.1c1.2,3.3,0.8,4.2-2.8,4.9c-2,0.4-4.1,0.4-5.8,0.5
	C77.8,108.8,76.6,106.1,75.2,102.7z M80.9,146.6c0.4,0.7,0.7,1.2,1.2,2.1c0.2-1.1,0.4-1.8,0.6-2.9c0.6,0.3,1.1,0.6,1.4,0.9
	c0.7-0.6,1.4-1.2,2.1-1.8c0.4,0.7,1.1,1.3,1.3,2c0.4,1.8,0.5,3.7,0.8,6.1c-1.2-0.9-1.8-1.5-2.6-2.1c-0.2,0.6-0.5,1.2-0.7,1.7
	c-0.6-0.4-1.1-0.7-1.9-1.3v3.6C80,152.4,79.5,150.5,80.9,146.6z M85.5,171.7c0.3,2.6,0.5,5.2,0.9,8C82.3,178.7,82,176.2,85.5,171.7z
	 M89.3,175.3c0.4,3.3,0.7,5.7,1,8.7C86.7,182.3,86.5,180.1,89.3,175.3z M94.3,185.2c-1-0.5-2.5-0.8-3-1.6c-1.5-2.9,0.1-5.2,2.5-7.4
	c0.4,2.7,0.9,5.4,1.3,8.2C94.8,184.7,94.5,184.9,94.3,185.2z M95.1,147.4c-0.1-0.6,1.3-2,2-1.9c0.9,0,2.5,1.2,2.4,1.8
	c-0.4,2.9-1.1,5.7-1.7,8.6c-0.4-0.1-0.7-0.1-1.1,0C96.1,153.1,95.4,150.3,95.1,147.4z M100.5,185.3c-0.6,0.4-2.1,0.6-2.6,0.2
	c-0.6-0.5-0.8-1.8-0.6-2.6c0.4-1.6,1.2-3.1,2.3-5.4c0.7,2.5,1.2,4,1.5,5.5C101.2,183.7,101,184.9,100.5,185.3z M107.4,183.9
	c-0.1,0.6-1.6,1-2.5,1.6c-0.3-0.8-1.1-1.8-0.9-2.5c0.4-2,1.3-3.8,2-5.8c0.4,0,0.9,0.1,1.5,0.1C107.5,179.5,107.7,181.7,107.4,183.9z
	 M107.8,149.3c-1.9,3.2-3.5,5.9-5.1,8.6c-0.4-0.1-0.8-0.2-1.2-0.3c0-3.4-0.3-6.9,0.2-10.3c0.2-1,2.5-1.9,4-2.6
	c0.4-0.2,1.3,0.6,2.3,1c0.7-0.1,2.3-0.8,2.9-0.3c0.8,0.6,1.3,2.2,1,3.2c-0.5,2.4-1.5,4.7-2.3,7c-0.3-0.1-0.6-0.1-0.9-0.2
	C108.3,153.5,108,151.5,107.8,149.3z M108.9,185.1c0.8-3.4,1.4-6.2,2.2-9.8C114.4,180.9,113.8,184,108.9,185.1z M116.5,180.4
	c-0.4,0.3-1.3,0.5-1.5,0.3c-0.5-0.5-1-1.2-1.1-1.9c-0.1-2.2-0.1-4.4,0.8-7.2c0.5,0.7,1,1.5,1.8,2.9c0.4-2.6,0.6-4.4,0.9-6.5
	C120.1,172.1,119.7,177.6,116.5,180.4z M123,149.4c-0.3,1.6,0.6,3.9-2.8,3.9c-0.8,0.2-1.7,1.9-3,3.3c-0.3-2.9-0.5-5.3-0.7-7.8
	c-0.3,0-0.6-0.1-0.9-0.1c-0.6,1-1.1,2-2.3,4c-0.2-2.8-0.5-4.6-0.4-6.4c0-0.5,1.3-1.3,2-1.3c2.6,0.2,5.2,0.7,8.1,1.1
	C123,147.1,123.2,148.3,123,149.4z M135,111.4c-2,0.4-4.1,0.4-5.8,0.5c-1.3-3.1-2.5-5.8-3.9-9.2c-1.3,1.8-1.9,2.6-2.6,3.4
	c-0.2,1.6-0.4,3.1-0.7,5.6c-2.9-0.5-5.7-0.7-8.3-1.5c-0.7-0.2-1.2-2.3-1-3.4c0.9-4.7,5.5-8.4,10.8-9c5.5-0.6,11,2.1,13.4,6.6
	c0.3,0.7,0.6,1.3,0.9,2.1C139,109.8,138.6,110.7,135,111.4z M149.1,63.1c0.2-4.7,1.3-5.5,5-3.9c0.7,1.6,1.4,3.5-0.5,4.4
	C152.4,64.1,150.7,63.3,149.1,63.1z"/>
<path d="M43.4,41.6c-3.9,2.1-4.9,3-4.6,3.9c1.6-0.9,3.5-2,4.5-2.8C45.2,41.2,44.3,41.4,43.4,41.6z"/>
<path class="st1" d="M150.8,60.6c-1.3-1-0.6-0.9,0-0.8c2.7,1.5,3.4,2.1,3.2,2.8C152.9,61.9,151.6,61.2,150.8,60.6z"/>
<path class="st0" d="M69.9,106.6c1.1-0.2,1.9-0.3,2.7-0.5c0.1-1.4,0.2-2.8,0.4-4.8C69.1,104.1,68.7,105.2,69.9,106.6z"/>
<path class="st0" d="M72.6,106.1c0.1-1.4,0.3-2.8,0.4-4.8C72.8,103.3,72.7,104.7,72.6,106.1z"/>
<path class="st0" d="M73,101.3c-4,2.8-4.4,3.9-3.1,5.3C68.7,105.2,69.1,104.1,73,101.3z"/>
<path class="st0" d="M120,106.6c1.1-0.2,1.9-0.3,2.7-0.5c0.1-1.4,0.2-2.8,0.4-4.8C119.2,104.1,118.8,105.2,120,106.6z"/>
<path class="st0" d="M122.7,106.1c0.2-1.4,0.3-2.8,0.4-4.8C122.9,103.3,122.8,104.7,122.7,106.1z"/>
<path class="st0" d="M123.1,101.3c-4,2.8-4.4,3.9-3.1,5.3C118.8,105.2,119.2,104.1,123.1,101.3z"/>
<path d="M94.9,5.4c-3.7,2.1-4.7,2.9-4.4,3.8c1.5-0.9,3.3-1.9,4.4-2.8C96.7,5.1,95.7,5.2,94.9,5.4z"/>
<path d="M108.5,22c-0.8-0.2-1.8-0.3,0,1c1.1,0.9,2.9,1.9,4.4,2.8C113.2,24.9,112.2,24.1,108.5,22z"/>
<path d="M150.8,59.8c-0.6-0.1-1.3-0.2,0,0.8c0.8,0.6,2.1,1.3,3.2,2C154.2,61.9,153.5,61.3,150.8,59.8z"/>
<path d="M159,16.4c-0.8-0.2-1.8-0.3,0,1c1.1,0.9,2.9,1.9,4.4,2.8C163.7,19.3,162.7,18.5,159,16.4z"/>
</svg>
