<?xml version="1.0" encoding="utf-8"?>
<!-- Generator: Adobe Illustrator 26.5.0, SVG Export Plug-In . SVG Version: 6.00 Build 0)  -->
<svg version="1.1" id="Layer_2_00000134947068822006245100000008139767055600609173_"
	 xmlns="http://www.w3.org/2000/svg" xmlns:xlink="http://www.w3.org/1999/xlink" x="0px" y="0px" viewBox="0 0 200 200"
	 style="enable-background:new 0 0 200 200;" xml:space="preserve">
<style type="text/css">
	.st0{fill:#A90000;}
	.st1{fill:#FFFFFF;}
</style>
<g id="Layer_1-2">
	<g>
		<path class="st0" d="M82.9,6.1c2.6-6.8,12.5-7,15.2-0.2c1.2,2.9,0.7,6-2.3,9.6c-2.3,2.7-2,6.4-1.9,9.8c0.1,3.9,2.1,4.1,4.6,2.1
			c1.3-1,2.1-2.6,3.1-4c2.5-3.2,5.8-5.5,9.9-5c3.5,0.4,4.3,3.7,4.9,6.6c0.9,4.6-0.9,8.1-4.7,10.6c-2.5,1.6-5.3,2.3-8.2,2.7
			c-1.9,0.3-4.4,0.2-4.7,2.5c-0.3,2.3,2.1,3.1,3.8,3.8c5.2,2.1,7.3,10.5,12.2,9.8c4.8-0.7,9.2-5.9,14.2-8.3c1.3-0.6,2.6-1.4,4-1.7
			c8-1.9,11.7-6.2,10.9-15.1c-0.8-8.5,5.7-16.6,12.5-17.4c3.7-0.4,7.9-0.3,8.8,4.3c1,4.5-1.2,9.2-5.7,9.6c-5.4,0.5-5.1,3.4-4.6,6.6
			c2.2,12.1-2.5,19.6-14.1,23.6c-5.6,1.9-10.1,5.8-12.9,11.3c-0.7,1.3-1,2.8,0,4.1c0.7,0.9,1.9,0.9,2.6,0.3
			c4.8-3.9,12-4.5,15.2-10.7c1.3-2.5,2.8-5.7,6.6-4c3.7,1.6,5.8,4.7,5.1,8.8c-0.5,2.8-2.1,5.4-3.3,8c-0.6,1.4-1.1,2.8-0.1,4.1
			c1.3,1.7,2.9,1.2,4.6,0.5c5.3-2.2,9.5-5.8,13.2-10.1c2.2-2.6,4.4-5.2,6.6-7.9c1.8-2.2,5.5-1.1,5.7,1.8c1.2,15.6-1.5,38.3-6.1,48.6
			c-1.5,3.4-3.5,6.4-6.2,8.9c-2.7,2.5-9.3,2.8-5.4,9.3c0.5,0.9-0.9,1.8-1.8,1.7c-4.6-0.3-6.4,1.1-5.2,6.2c0.6,2.4-2.6,3.8-4.9,4.7
			c-9.5,3.8-9.7,5.2-6.9,16.9c0.6,2.4,1.4,4.7,2.1,7s0.2,4.2-2.3,3.2c-7.7-2.9-10.3,2.7-13.7,7.4c-8.1,11.3-21.2,16-32.5,22.6
			c-6.4,3.7-10.7-6.8-17.1-8.8c-0.2-0.1-0.4-0.2-0.7-0.3c-8.1-3.4-14.6-8.6-19.3-16.1c-2.5-4-5.3-6.8-10.7-5
			c-4.7,1.5-4.2-1.5-3.1-4.3c1.8-4.6,2.9-9.3,3-14.2c0-2.7-0.1-5.7-3.1-6.9c-4.5-1.8-10.6-2-10-8.1c0.1-1.4-0.6-2.7-1.9-3.2
			c-3.9-1.6-3.3-7.4-5.7-8.8c-10.1-6-12.7-15.6-14.7-25.6c-1.5-7.8-2.1-15.7-3.1-23.6c0-0.1,0-0.3,0-0.4V61.2c0-3.1,3.9-4.4,5.8-2
			l0,0.1c5.3,7,10.7,13.9,18.7,18c0.2,0.1,0.4,0.2,0.7,0.3c3.1,1.7,6.3-2.2,3.9-4.9c-0.1-0.1-0.2-0.3-0.3-0.4
			c-5.5-7-9.8-14.5-10.7-23.5c-0.4-4,0.1-7.9,4.1-10.1c2.4-1.4,5.2-2.1,7.5,0C48,41.6,47,45.3,46.3,49c-1.6,8.3,1.1,12.4,9.3,14.2
			c1.9,0.4,3.8,0.8,5.7,1.2c3.9,0.8,5.2-0.1,4.3-4.6c-2.2-10,1-19.1,9.3-24.3c7.8-4.9,8.5-11.1,7.4-18.6C81.6,13,81.7,9.4,82.9,6.1
			L82.9,6.1z"/>
		<path class="st1" d="M38.1,46c0.3-6.1,1.7-7.2,6.5-5.1c0.9,2.1,1.9,4.6-0.7,5.7C42.4,47.3,40.1,46.2,38.1,46z"/>
		<path d="M38.8,45.5c-0.3-0.9,0.7-1.8,4.6-3.9c0.9-0.2,1.8-0.4-0.1,1.1C42.3,43.5,40.4,44.6,38.8,45.5z"/>
		<path class="st1" d="M89.8,9.7c0.3-6.1,1.7-7.2,6.5-5.1c0.9,2.1,1.9,4.6-0.7,5.7C94.1,11,91.7,10,89.8,9.7z"/>
		<path class="st1" d="M106.3,26.3c0.3-6.1,1.7-7.2,6.5-5.1c0.9,2.1,1.9,4.6-0.7,5.7C110.6,27.6,108.3,26.5,106.3,26.3z"/>
		<path class="st1" d="M156.8,20.4c0.3-6.1,1.7-7.2,6.5-5.1c0.9,2.1,1.9,4.6-0.7,5.7C161.1,21.7,158.8,20.7,156.8,20.4z"/>
		<path class="st1" d="M149.1,63.1c0.2-4.7,1.3-5.5,5-3.9c0.7,1.6,1.4,3.5-0.5,4.4C152.4,64.1,150.7,63.3,149.1,63.1z"/>
		<path class="st1" d="M107.8,149.3c-1.9,3.2-3.5,5.9-5.1,8.6c-0.4-0.1-0.8-0.2-1.2-0.3c0-3.4-0.3-6.9,0.2-10.3c0.2-1,2.5-1.9,4-2.6
			c0.4-0.2,1.3,0.6,2.3,1c0.7-0.1,2.3-0.8,2.9-0.3c0.8,0.6,1.3,2.2,1,3.2c-0.5,2.4-1.5,4.7-2.3,7c-0.3-0.1-0.6-0.1-0.9-0.2
			C108.3,153.5,108,151.5,107.8,149.3L107.8,149.3z"/>
		<path class="st1" d="M117.2,156.6c-0.3-2.9-0.5-5.3-0.7-7.8c-0.3,0-0.6-0.1-0.9-0.1c-0.6,1-1.1,2-2.3,4c-0.2-2.8-0.5-4.6-0.4-6.4
			c0-0.5,1.3-1.3,2-1.3c2.6,0.2,5.2,0.7,8.1,1.1c0,1,0.2,2.2,0,3.3c-0.3,1.6,0.6,3.9-2.8,3.9C119.4,153.5,118.5,155.2,117.2,156.6
			L117.2,156.6z"/>
		<path class="st1" d="M80.9,146.6c0.4,0.7,0.7,1.2,1.2,2.1c0.2-1.1,0.4-1.8,0.6-2.9c0.6,0.3,1.1,0.6,1.4,0.9
			c0.7-0.6,1.4-1.2,2.1-1.8c0.4,0.7,1.1,1.3,1.3,2c0.4,1.8,0.5,3.7,0.8,6.1c-1.2-0.9-1.8-1.5-2.6-2.1c-0.2,0.6-0.5,1.2-0.7,1.7
			c-0.6-0.4-1.1-0.7-1.9-1.3v3.6C80,152.4,79.5,150.5,80.9,146.6L80.9,146.6z"/>
		<path class="st1" d="M116.5,174.5c0.4-2.6,0.6-4.4,0.9-6.5c2.7,4.1,2.3,9.6-0.9,12.4c-0.4,0.3-1.3,0.5-1.5,0.3
			c-0.5-0.5-1-1.2-1.1-1.9c-0.1-2.2-0.1-4.4,0.8-7.2C115.2,172.3,115.7,173.1,116.5,174.5L116.5,174.5z"/>
		<path class="st1" d="M96.7,155.9c-0.6-2.8-1.3-5.6-1.6-8.5c-0.1-0.6,1.3-2,2-1.9c0.9,0,2.5,1.2,2.4,1.8c-0.4,2.9-1.1,5.7-1.7,8.6
			C97.4,155.8,97.1,155.8,96.7,155.9L96.7,155.9z"/>
		<path class="st1" d="M93.2,153.8c-3.3-3-4.2-6.1-3.9-10.4c2,0.9,3.4,1.6,4.6,2.2C93.6,148.2,93.4,150.6,93.2,153.8L93.2,153.8z"/>
		<path class="st1" d="M93.8,176.2c0.4,2.7,0.9,5.4,1.3,8.2c-0.3,0.3-0.6,0.5-0.8,0.8c-1-0.5-2.5-0.8-3-1.6
			C89.8,180.7,91.4,178.4,93.8,176.2L93.8,176.2z"/>
		<path class="st1" d="M108.9,185.1c0.8-3.4,1.4-6.2,2.2-9.8C114.4,180.9,113.8,184,108.9,185.1z"/>
		<path class="st1" d="M107.5,177.3c0,2.2,0.2,4.4-0.1,6.6c-0.1,0.6-1.6,1-2.5,1.6c-0.3-0.8-1.1-1.8-0.9-2.5c0.4-2,1.3-3.8,2-5.8
			C106.4,177.2,106.9,177.3,107.5,177.3L107.5,177.3z"/>
		<path class="st1" d="M85.5,171.7c0.3,2.6,0.5,5.2,0.9,8C82.3,178.7,82,176.2,85.5,171.7z"/>
		<path class="st1" d="M99.6,177.5c0.7,2.5,1.2,4,1.5,5.5c0.1,0.7-0.1,1.9-0.6,2.3c-0.6,0.4-2.1,0.6-2.6,0.2
			c-0.6-0.5-0.8-1.8-0.6-2.6C97.7,181.3,98.5,179.8,99.6,177.5L99.6,177.5z"/>
		<path class="st1" d="M90.3,184c-3.6-1.7-3.8-3.9-1-8.7C89.7,178.6,90,181,90.3,184z"/>
		<g>
			<path class="st1" d="M72.6,106.1c-0.2,1.6-0.4,3.1-0.7,5.6c-2.9-0.5-5.7-0.7-8.3-1.5c-0.7-0.2-1.2-2.3-1-3.4
				c0.9-4.7,5.5-8.4,10.8-9c5.5-0.6,11,2.1,13.4,6.6c0.3,0.7,0.6,1.3,0.9,2.1c1.2,3.3,0.8,4.2-2.8,4.9c-2,0.4-4.1,0.4-5.8,0.5
				c-1.3-3.1-2.5-5.8-3.9-9.2C73.9,104.5,73.3,105.3,72.6,106.1c0.1-1.4,0.2-2.8,0.4-4.8c-3.9,2.8-4.3,3.9-3.1,5.3
				C71,106.4,71.8,106.3,72.6,106.1L72.6,106.1z"/>
			<path class="st0" d="M72.6,106.1c-0.8,0.2-1.6,0.3-2.7,0.5c-1.3-1.4-0.9-2.5,3.1-5.3C72.9,103.3,72.7,104.7,72.6,106.1
				L72.6,106.1L72.6,106.1z"/>
		</g>
		<g>
			<path class="st1" d="M122.7,106.1c-0.2,1.6-0.4,3.1-0.7,5.6c-2.9-0.5-5.7-0.7-8.3-1.5c-0.7-0.2-1.2-2.3-1-3.4
				c0.9-4.7,5.5-8.4,10.8-9c5.5-0.6,11,2.1,13.4,6.6c0.3,0.7,0.6,1.3,0.9,2.1c1.2,3.3,0.8,4.2-2.8,4.9c-2,0.4-4.1,0.4-5.8,0.5
				c-1.3-3.1-2.5-5.8-3.9-9.2C124,104.5,123.4,105.3,122.7,106.1c0.1-1.4,0.2-2.8,0.4-4.8c-3.9,2.8-4.3,3.9-3.1,5.3
				C121.1,106.4,121.9,106.3,122.7,106.1L122.7,106.1z"/>
			<path class="st0" d="M122.7,106.1c-0.8,0.2-1.6,0.3-2.7,0.5c-1.3-1.4-0.9-2.5,3.1-5.3C123,103.3,122.9,104.7,122.7,106.1
				L122.7,106.1L122.7,106.1z"/>
		</g>
		<path d="M90.5,9.2c-0.3-0.9,0.7-1.7,4.4-3.8c0.8-0.2,1.8-0.3,0,1C93.8,7.3,92,8.3,90.5,9.2z"/>
		<path d="M112.9,25.8c0.3-0.9-0.7-1.7-4.4-3.8c-0.8-0.2-1.8-0.3,0,1C109.6,23.9,111.4,24.9,112.9,25.8z"/>
		<path d="M154,62.6c0.2-0.7-0.5-1.3-3.2-2.8c-0.6-0.1-1.3-0.2,0,0.8C151.6,61.2,152.9,61.9,154,62.6z"/>
		<path d="M163.4,20.2c0.3-0.9-0.7-1.7-4.4-3.8c-0.8-0.2-1.8-0.3,0,1C160.1,18.3,161.9,19.3,163.4,20.2z"/>
	</g>
</g>
</svg>
