<?xml version="1.0" encoding="utf-8"?>
<!-- Generator: Adobe Illustrator 26.5.0, SVG Export Plug-In . SVG Version: 6.00 Build 0)  -->
<svg version="1.1" id="a" xmlns="http://www.w3.org/2000/svg" xmlns:xlink="http://www.w3.org/1999/xlink" x="0px" y="0px"
	 viewBox="0 0 250 250" style="enable-background:new 0 0 250 250;" xml:space="preserve">
<style type="text/css">
	.st0{fill:none;stroke:#E55625;stroke-width:10;stroke-miterlimit:10;}
	.st1{fill:#E55625;}
</style>
<circle class="st0" cx="124.9" cy="125.1" r="119"/>
<path class="st1" d="M81.1,49.6H97v160.5H81.1V49.6z M92.7,133.1H144c6.3,0,11.8-1.4,16.6-4.3c4.8-2.9,8.5-6.9,11.1-12
	c2.6-5.1,3.9-11.1,3.9-17.9s-1.3-12.9-3.9-18c-2.6-5.2-6.3-9.2-11.1-12.1c-4.8-2.9-10.3-4.3-16.6-4.3H92.7V49.6h50.5
	c9.6,0,18,2,25.3,6.1c7.3,4.1,12.9,9.8,16.9,17.3c4,7.4,6,16,6,25.8s-2,18.3-6,25.7c-4,7.4-9.7,13.1-16.9,17.2
	c-7.3,4.1-15.7,6.1-25.3,6.1H92.7L92.7,133.1L92.7,133.1z"/>
</svg>
